G75*
G70*
%OFA0B0*%
%FSLAX24Y24*%
%IPPOS*%
%LPD*%
%AMOC8*
5,1,8,0,0,1.08239X$1,22.5*
%
%ADD10C,0.0400*%
%ADD11C,0.0110*%
%ADD12C,0.0520*%
%ADD13C,0.0600*%
%ADD14C,0.0705*%
%ADD15OC8,0.0520*%
%ADD16OC8,0.0630*%
%ADD17OC8,0.0600*%
%ADD18C,0.1024*%
%ADD19C,0.0740*%
%ADD20OC8,0.0740*%
%ADD21C,0.1142*%
%ADD22C,0.0650*%
%ADD23C,0.0630*%
%ADD24C,0.0660*%
%ADD25C,0.1000*%
%ADD26OC8,0.1000*%
%ADD27C,0.1300*%
%ADD28C,0.0520*%
%ADD29C,0.0500*%
%ADD30C,0.1000*%
%ADD31C,0.0240*%
%ADD32C,0.0160*%
%ADD33OC8,0.0768*%
%ADD34C,0.0320*%
%ADD35C,0.1500*%
%ADD36C,0.0860*%
%ADD37C,0.0760*%
%ADD38C,0.0560*%
%ADD39C,0.0660*%
%ADD40C,0.0120*%
D10*
X001300Y002685D02*
X001300Y002740D01*
X001330Y002770D01*
X001227Y002726D02*
X001229Y002747D01*
X001235Y002767D01*
X001244Y002787D01*
X001256Y002804D01*
X001271Y002818D01*
X001289Y002830D01*
X001309Y002838D01*
X001329Y002843D01*
X001350Y002844D01*
X001371Y002841D01*
X001391Y002835D01*
X001410Y002824D01*
X001427Y002811D01*
X001440Y002795D01*
X001451Y002777D01*
X001459Y002757D01*
X001463Y002737D01*
X001463Y002715D01*
X001459Y002695D01*
X001451Y002675D01*
X001440Y002657D01*
X001427Y002641D01*
X001410Y002628D01*
X001391Y002617D01*
X001371Y002611D01*
X001350Y002608D01*
X001329Y002609D01*
X001309Y002614D01*
X001289Y002622D01*
X001271Y002634D01*
X001256Y002648D01*
X001244Y002665D01*
X001235Y002685D01*
X001229Y002705D01*
X001227Y002726D01*
X001397Y003713D02*
X001378Y003732D01*
X001225Y003735D02*
X001227Y003757D01*
X001233Y003778D01*
X001242Y003798D01*
X001255Y003817D01*
X001270Y003832D01*
X001288Y003845D01*
X001309Y003854D01*
X001330Y003860D01*
X001352Y003862D01*
X001374Y003860D01*
X001395Y003854D01*
X001415Y003845D01*
X001434Y003832D01*
X001449Y003817D01*
X001462Y003798D01*
X001471Y003778D01*
X001477Y003757D01*
X001479Y003735D01*
X001477Y003713D01*
X001471Y003692D01*
X001462Y003672D01*
X001449Y003653D01*
X001434Y003638D01*
X001416Y003625D01*
X001395Y003616D01*
X001374Y003610D01*
X001352Y003608D01*
X001330Y003610D01*
X001309Y003616D01*
X001288Y003625D01*
X001270Y003638D01*
X001255Y003653D01*
X001242Y003671D01*
X001233Y003692D01*
X001227Y003713D01*
X001225Y003735D01*
X001397Y003713D02*
X001415Y003713D01*
X001179Y004700D02*
X001181Y004722D01*
X001187Y004743D01*
X001196Y004763D01*
X001209Y004780D01*
X001225Y004795D01*
X001243Y004807D01*
X001263Y004816D01*
X001285Y004821D01*
X001306Y004822D01*
X001328Y004819D01*
X001349Y004812D01*
X001368Y004802D01*
X001385Y004788D01*
X001400Y004772D01*
X001411Y004753D01*
X001419Y004732D01*
X001423Y004711D01*
X001423Y004689D01*
X001419Y004668D01*
X001411Y004647D01*
X001400Y004628D01*
X001385Y004612D01*
X001368Y004598D01*
X001349Y004588D01*
X001328Y004581D01*
X001306Y004578D01*
X001285Y004579D01*
X001263Y004584D01*
X001243Y004593D01*
X001225Y004605D01*
X001209Y004620D01*
X001196Y004637D01*
X001187Y004657D01*
X001181Y004678D01*
X001179Y004700D01*
X001288Y004730D02*
X001294Y004730D01*
X001288Y007711D02*
X001300Y007724D01*
X001173Y007727D02*
X001175Y007748D01*
X001181Y007768D01*
X001190Y007788D01*
X001202Y007805D01*
X001217Y007819D01*
X001235Y007831D01*
X001255Y007839D01*
X001275Y007844D01*
X001296Y007845D01*
X001317Y007842D01*
X001337Y007836D01*
X001356Y007825D01*
X001373Y007812D01*
X001386Y007796D01*
X001397Y007778D01*
X001405Y007758D01*
X001409Y007738D01*
X001409Y007716D01*
X001405Y007696D01*
X001397Y007676D01*
X001386Y007658D01*
X001373Y007642D01*
X001356Y007629D01*
X001337Y007618D01*
X001317Y007612D01*
X001296Y007609D01*
X001275Y007610D01*
X001255Y007615D01*
X001235Y007623D01*
X001217Y007635D01*
X001202Y007649D01*
X001190Y007666D01*
X001181Y007686D01*
X001175Y007706D01*
X001173Y007727D01*
X001251Y007711D02*
X001288Y007711D01*
X002556Y009423D02*
X002558Y009452D01*
X002564Y009481D01*
X002573Y009509D01*
X002587Y009535D01*
X002603Y009559D01*
X002623Y009581D01*
X002646Y009600D01*
X002670Y009616D01*
X002697Y009628D01*
X002725Y009637D01*
X002754Y009642D01*
X002783Y009643D01*
X002813Y009640D01*
X002841Y009633D01*
X002869Y009623D01*
X002894Y009608D01*
X002918Y009591D01*
X002939Y009571D01*
X002957Y009548D01*
X002972Y009522D01*
X002984Y009495D01*
X002992Y009467D01*
X002996Y009438D01*
X002996Y009408D01*
X002992Y009379D01*
X002984Y009351D01*
X002972Y009324D01*
X002957Y009298D01*
X002939Y009275D01*
X002918Y009255D01*
X002894Y009238D01*
X002869Y009223D01*
X002841Y009213D01*
X002813Y009206D01*
X002783Y009203D01*
X002754Y009204D01*
X002725Y009209D01*
X002697Y009218D01*
X002670Y009230D01*
X002646Y009246D01*
X002623Y009265D01*
X002603Y009287D01*
X002587Y009311D01*
X002573Y009337D01*
X002564Y009365D01*
X002558Y009394D01*
X002556Y009423D01*
X003580Y009429D02*
X003582Y009460D01*
X003588Y009490D01*
X003598Y009520D01*
X003611Y009548D01*
X003628Y009574D01*
X003648Y009597D01*
X003671Y009618D01*
X003697Y009636D01*
X003724Y009650D01*
X003753Y009661D01*
X003783Y009668D01*
X003814Y009671D01*
X003845Y009670D01*
X003876Y009665D01*
X003906Y009656D01*
X003934Y009644D01*
X003960Y009627D01*
X003985Y009608D01*
X004006Y009586D01*
X004025Y009561D01*
X004040Y009534D01*
X004052Y009505D01*
X004060Y009475D01*
X004064Y009445D01*
X004064Y009413D01*
X004060Y009383D01*
X004052Y009353D01*
X004040Y009324D01*
X004025Y009297D01*
X004006Y009272D01*
X003985Y009250D01*
X003960Y009231D01*
X003934Y009214D01*
X003906Y009202D01*
X003876Y009193D01*
X003845Y009188D01*
X003814Y009187D01*
X003783Y009190D01*
X003753Y009197D01*
X003724Y009208D01*
X003697Y009222D01*
X003671Y009240D01*
X003648Y009261D01*
X003628Y009284D01*
X003611Y009310D01*
X003598Y009338D01*
X003588Y009368D01*
X003582Y009398D01*
X003580Y009429D01*
X004631Y009357D02*
X004633Y009382D01*
X004639Y009407D01*
X004648Y009431D01*
X004661Y009453D01*
X004677Y009473D01*
X004695Y009491D01*
X004717Y009505D01*
X004740Y009516D01*
X004764Y009524D01*
X004789Y009528D01*
X004815Y009528D01*
X004840Y009524D01*
X004864Y009516D01*
X004888Y009505D01*
X004909Y009491D01*
X004927Y009473D01*
X004943Y009453D01*
X004956Y009431D01*
X004965Y009407D01*
X004971Y009382D01*
X004973Y009357D01*
X004971Y009332D01*
X004965Y009307D01*
X004956Y009283D01*
X004943Y009261D01*
X004927Y009241D01*
X004909Y009223D01*
X004887Y009209D01*
X004864Y009198D01*
X004840Y009190D01*
X004815Y009186D01*
X004789Y009186D01*
X004764Y009190D01*
X004740Y009198D01*
X004716Y009209D01*
X004695Y009223D01*
X004677Y009241D01*
X004661Y009261D01*
X004648Y009283D01*
X004639Y009307D01*
X004633Y009332D01*
X004631Y009357D01*
X005513Y009369D02*
X005515Y009394D01*
X005521Y009419D01*
X005530Y009443D01*
X005543Y009465D01*
X005559Y009484D01*
X005578Y009501D01*
X005600Y009515D01*
X005623Y009525D01*
X005647Y009532D01*
X005673Y009535D01*
X005698Y009534D01*
X005723Y009529D01*
X005747Y009520D01*
X005769Y009508D01*
X005789Y009493D01*
X005807Y009475D01*
X005822Y009454D01*
X005833Y009431D01*
X005841Y009407D01*
X005845Y009382D01*
X005845Y009356D01*
X005841Y009331D01*
X005833Y009307D01*
X005822Y009284D01*
X005807Y009263D01*
X005789Y009245D01*
X005769Y009230D01*
X005747Y009218D01*
X005723Y009209D01*
X005698Y009204D01*
X005673Y009203D01*
X005647Y009206D01*
X005623Y009213D01*
X005600Y009223D01*
X005578Y009237D01*
X005559Y009254D01*
X005543Y009273D01*
X005530Y009295D01*
X005521Y009319D01*
X005515Y009344D01*
X005513Y009369D01*
X006553Y009312D02*
X006555Y009334D01*
X006561Y009355D01*
X006570Y009375D01*
X006583Y009392D01*
X006599Y009407D01*
X006617Y009419D01*
X006637Y009428D01*
X006659Y009433D01*
X006680Y009434D01*
X006702Y009431D01*
X006723Y009424D01*
X006742Y009414D01*
X006759Y009400D01*
X006774Y009384D01*
X006785Y009365D01*
X006793Y009344D01*
X006797Y009323D01*
X006797Y009301D01*
X006793Y009280D01*
X006785Y009259D01*
X006774Y009240D01*
X006759Y009224D01*
X006742Y009210D01*
X006723Y009200D01*
X006702Y009193D01*
X006680Y009190D01*
X006659Y009191D01*
X006637Y009196D01*
X006617Y009205D01*
X006599Y009217D01*
X006583Y009232D01*
X006570Y009249D01*
X006561Y009269D01*
X006555Y009290D01*
X006553Y009312D01*
X010063Y005999D02*
X008923Y004859D01*
X008923Y002613D01*
X009144Y002392D01*
X010872Y002392D01*
X010544Y002393D02*
X068360Y002393D01*
X069905Y003938D01*
X067958Y003938D01*
X067369Y003349D01*
X067861Y003573D02*
X066559Y003573D01*
X065410Y002424D01*
X064287Y002424D01*
X066099Y002526D02*
X066099Y002654D01*
X066431Y002986D01*
X066406Y002679D02*
X066227Y002679D01*
X066176Y002628D01*
X067861Y003573D02*
X067886Y003548D01*
X068928Y003833D02*
X068930Y003889D01*
X068936Y003945D01*
X068946Y004001D01*
X068959Y004056D01*
X068977Y004109D01*
X068998Y004162D01*
X069023Y004212D01*
X069051Y004261D01*
X069082Y004308D01*
X069117Y004352D01*
X069155Y004394D01*
X069195Y004433D01*
X069239Y004470D01*
X069284Y004503D01*
X069332Y004533D01*
X069382Y004559D01*
X069433Y004582D01*
X069486Y004601D01*
X069541Y004617D01*
X069596Y004629D01*
X069652Y004637D01*
X069708Y004641D01*
X069764Y004641D01*
X069820Y004637D01*
X069876Y004629D01*
X069931Y004617D01*
X069986Y004601D01*
X070039Y004582D01*
X070090Y004559D01*
X070140Y004533D01*
X070188Y004503D01*
X070233Y004470D01*
X070277Y004433D01*
X070317Y004394D01*
X070355Y004352D01*
X070390Y004308D01*
X070421Y004261D01*
X070449Y004212D01*
X070474Y004162D01*
X070495Y004109D01*
X070513Y004056D01*
X070526Y004001D01*
X070536Y003945D01*
X070542Y003889D01*
X070544Y003833D01*
X070542Y003777D01*
X070536Y003721D01*
X070526Y003665D01*
X070513Y003610D01*
X070495Y003557D01*
X070474Y003504D01*
X070449Y003454D01*
X070421Y003405D01*
X070390Y003358D01*
X070355Y003314D01*
X070317Y003272D01*
X070277Y003233D01*
X070233Y003196D01*
X070188Y003163D01*
X070140Y003133D01*
X070090Y003107D01*
X070039Y003084D01*
X069986Y003065D01*
X069931Y003049D01*
X069876Y003037D01*
X069820Y003029D01*
X069764Y003025D01*
X069708Y003025D01*
X069652Y003029D01*
X069596Y003037D01*
X069541Y003049D01*
X069486Y003065D01*
X069433Y003084D01*
X069382Y003107D01*
X069332Y003133D01*
X069284Y003163D01*
X069239Y003196D01*
X069195Y003233D01*
X069155Y003272D01*
X069117Y003314D01*
X069082Y003358D01*
X069051Y003405D01*
X069023Y003454D01*
X068998Y003504D01*
X068977Y003557D01*
X068959Y003610D01*
X068946Y003665D01*
X068936Y003721D01*
X068930Y003777D01*
X068928Y003833D01*
X060477Y020198D02*
X060479Y020254D01*
X060485Y020310D01*
X060495Y020366D01*
X060509Y020420D01*
X060526Y020474D01*
X060547Y020526D01*
X060572Y020576D01*
X060601Y020625D01*
X060633Y020671D01*
X060667Y020715D01*
X060705Y020757D01*
X060746Y020795D01*
X060790Y020831D01*
X060836Y020864D01*
X060884Y020893D01*
X060934Y020919D01*
X060985Y020941D01*
X061038Y020959D01*
X061093Y020974D01*
X061148Y020985D01*
X061204Y020992D01*
X061260Y020995D01*
X061316Y020994D01*
X061372Y020989D01*
X061428Y020980D01*
X061483Y020967D01*
X061536Y020951D01*
X061589Y020930D01*
X061640Y020906D01*
X061689Y020879D01*
X061736Y020848D01*
X061780Y020814D01*
X061822Y020776D01*
X061862Y020736D01*
X061898Y020693D01*
X061932Y020648D01*
X061962Y020601D01*
X061989Y020551D01*
X062012Y020500D01*
X062031Y020447D01*
X062047Y020393D01*
X062059Y020338D01*
X062067Y020282D01*
X062071Y020226D01*
X062071Y020170D01*
X062067Y020114D01*
X062059Y020058D01*
X062047Y020003D01*
X062031Y019949D01*
X062012Y019896D01*
X061989Y019845D01*
X061962Y019795D01*
X061932Y019748D01*
X061898Y019703D01*
X061862Y019660D01*
X061822Y019620D01*
X061780Y019582D01*
X061736Y019548D01*
X061689Y019517D01*
X061640Y019490D01*
X061589Y019466D01*
X061536Y019445D01*
X061483Y019429D01*
X061428Y019416D01*
X061372Y019407D01*
X061316Y019402D01*
X061260Y019401D01*
X061204Y019404D01*
X061148Y019411D01*
X061093Y019422D01*
X061038Y019437D01*
X060985Y019455D01*
X060934Y019477D01*
X060884Y019503D01*
X060836Y019532D01*
X060790Y019565D01*
X060746Y019601D01*
X060705Y019639D01*
X060667Y019681D01*
X060633Y019725D01*
X060601Y019771D01*
X060572Y019820D01*
X060547Y019870D01*
X060526Y019922D01*
X060509Y019976D01*
X060495Y020030D01*
X060485Y020086D01*
X060479Y020142D01*
X060477Y020198D01*
X068888Y031584D02*
X068890Y031639D01*
X068896Y031694D01*
X068906Y031748D01*
X068920Y031801D01*
X068937Y031854D01*
X068959Y031904D01*
X068983Y031954D01*
X069012Y032001D01*
X069044Y032046D01*
X069078Y032088D01*
X069116Y032128D01*
X069157Y032166D01*
X069200Y032200D01*
X069246Y032231D01*
X069294Y032258D01*
X069343Y032282D01*
X069394Y032303D01*
X069447Y032319D01*
X069500Y032332D01*
X069555Y032341D01*
X069610Y032346D01*
X069665Y032347D01*
X069720Y032344D01*
X069774Y032337D01*
X069828Y032326D01*
X069882Y032311D01*
X069933Y032293D01*
X069984Y032271D01*
X070032Y032245D01*
X070079Y032216D01*
X070124Y032183D01*
X070166Y032147D01*
X070205Y032109D01*
X070241Y032067D01*
X070275Y032024D01*
X070305Y031977D01*
X070331Y031929D01*
X070355Y031879D01*
X070374Y031828D01*
X070390Y031775D01*
X070402Y031721D01*
X070410Y031666D01*
X070414Y031612D01*
X070414Y031556D01*
X070410Y031502D01*
X070402Y031447D01*
X070390Y031393D01*
X070374Y031340D01*
X070355Y031289D01*
X070331Y031239D01*
X070305Y031191D01*
X070275Y031144D01*
X070241Y031101D01*
X070205Y031059D01*
X070166Y031021D01*
X070124Y030985D01*
X070079Y030952D01*
X070033Y030923D01*
X069984Y030897D01*
X069933Y030875D01*
X069882Y030857D01*
X069828Y030842D01*
X069774Y030831D01*
X069720Y030824D01*
X069665Y030821D01*
X069610Y030822D01*
X069555Y030827D01*
X069500Y030836D01*
X069447Y030849D01*
X069394Y030865D01*
X069343Y030886D01*
X069294Y030910D01*
X069246Y030937D01*
X069200Y030968D01*
X069157Y031002D01*
X069116Y031040D01*
X069078Y031080D01*
X069044Y031122D01*
X069012Y031167D01*
X068983Y031214D01*
X068959Y031264D01*
X068937Y031314D01*
X068920Y031367D01*
X068906Y031420D01*
X068896Y031474D01*
X068890Y031529D01*
X068888Y031584D01*
X023363Y028208D02*
X023363Y027227D01*
X023365Y027248D02*
X023365Y027895D01*
X023363Y028208D02*
X022002Y029569D01*
X022002Y031698D01*
X021875Y031825D01*
X009604Y031520D02*
X009606Y031577D01*
X009612Y031633D01*
X009622Y031688D01*
X009635Y031743D01*
X009653Y031797D01*
X009674Y031849D01*
X009699Y031900D01*
X009727Y031949D01*
X009759Y031996D01*
X009794Y032041D01*
X009831Y032083D01*
X009872Y032122D01*
X009915Y032158D01*
X009961Y032192D01*
X010009Y032221D01*
X010059Y032248D01*
X010111Y032271D01*
X010164Y032290D01*
X010218Y032306D01*
X010273Y032318D01*
X010329Y032326D01*
X010386Y032330D01*
X010442Y032330D01*
X010499Y032326D01*
X010555Y032318D01*
X010610Y032306D01*
X010664Y032290D01*
X010717Y032271D01*
X010769Y032248D01*
X010819Y032221D01*
X010867Y032192D01*
X010913Y032158D01*
X010956Y032122D01*
X010997Y032083D01*
X011034Y032041D01*
X011069Y031996D01*
X011101Y031949D01*
X011129Y031900D01*
X011154Y031849D01*
X011175Y031797D01*
X011193Y031743D01*
X011206Y031688D01*
X011216Y031633D01*
X011222Y031577D01*
X011224Y031520D01*
X011222Y031463D01*
X011216Y031407D01*
X011206Y031352D01*
X011193Y031297D01*
X011175Y031243D01*
X011154Y031191D01*
X011129Y031140D01*
X011101Y031091D01*
X011069Y031044D01*
X011034Y030999D01*
X010997Y030957D01*
X010956Y030918D01*
X010913Y030882D01*
X010867Y030848D01*
X010819Y030819D01*
X010769Y030792D01*
X010717Y030769D01*
X010664Y030750D01*
X010610Y030734D01*
X010555Y030722D01*
X010499Y030714D01*
X010442Y030710D01*
X010386Y030710D01*
X010329Y030714D01*
X010273Y030722D01*
X010218Y030734D01*
X010164Y030750D01*
X010111Y030769D01*
X010059Y030792D01*
X010009Y030819D01*
X009961Y030848D01*
X009915Y030882D01*
X009872Y030918D01*
X009831Y030957D01*
X009794Y030999D01*
X009759Y031044D01*
X009727Y031091D01*
X009699Y031140D01*
X009674Y031191D01*
X009653Y031243D01*
X009635Y031297D01*
X009622Y031352D01*
X009612Y031407D01*
X009606Y031463D01*
X009604Y031520D01*
X009616Y017814D02*
X009618Y017872D01*
X009624Y017931D01*
X009634Y017988D01*
X009647Y018045D01*
X009665Y018101D01*
X009686Y018156D01*
X009711Y018208D01*
X009739Y018260D01*
X009771Y018309D01*
X009806Y018356D01*
X009844Y018400D01*
X009885Y018442D01*
X009929Y018481D01*
X009975Y018516D01*
X010024Y018549D01*
X010075Y018578D01*
X010127Y018604D01*
X010181Y018626D01*
X010237Y018645D01*
X010293Y018659D01*
X010351Y018670D01*
X010409Y018677D01*
X010467Y018680D01*
X010526Y018679D01*
X010584Y018674D01*
X010642Y018665D01*
X010699Y018652D01*
X010755Y018636D01*
X010810Y018615D01*
X010863Y018591D01*
X010915Y018564D01*
X010965Y018533D01*
X011012Y018499D01*
X011057Y018461D01*
X011100Y018421D01*
X011139Y018378D01*
X011176Y018332D01*
X011209Y018284D01*
X011239Y018234D01*
X011266Y018182D01*
X011289Y018128D01*
X011308Y018073D01*
X011324Y018017D01*
X011336Y017960D01*
X011344Y017902D01*
X011348Y017843D01*
X011348Y017785D01*
X011344Y017726D01*
X011336Y017668D01*
X011324Y017611D01*
X011308Y017555D01*
X011289Y017500D01*
X011266Y017446D01*
X011239Y017394D01*
X011209Y017344D01*
X011176Y017296D01*
X011139Y017250D01*
X011100Y017207D01*
X011057Y017167D01*
X011012Y017129D01*
X010965Y017095D01*
X010915Y017064D01*
X010863Y017037D01*
X010810Y017013D01*
X010755Y016992D01*
X010699Y016976D01*
X010642Y016963D01*
X010584Y016954D01*
X010526Y016949D01*
X010467Y016948D01*
X010409Y016951D01*
X010351Y016958D01*
X010293Y016969D01*
X010237Y016983D01*
X010181Y017002D01*
X010127Y017024D01*
X010075Y017050D01*
X010024Y017079D01*
X009975Y017112D01*
X009929Y017147D01*
X009885Y017186D01*
X009844Y017228D01*
X009806Y017272D01*
X009771Y017319D01*
X009739Y017368D01*
X009711Y017420D01*
X009686Y017472D01*
X009665Y017527D01*
X009647Y017583D01*
X009634Y017640D01*
X009624Y017697D01*
X009618Y017756D01*
X009616Y017814D01*
X013317Y014194D02*
X013319Y014251D01*
X013325Y014307D01*
X013335Y014363D01*
X013348Y014418D01*
X013366Y014471D01*
X013387Y014524D01*
X013412Y014575D01*
X013440Y014624D01*
X013472Y014671D01*
X013507Y014715D01*
X013545Y014757D01*
X013585Y014797D01*
X013629Y014833D01*
X013674Y014866D01*
X013722Y014896D01*
X013772Y014923D01*
X013824Y014946D01*
X013877Y014965D01*
X013932Y014981D01*
X013987Y014993D01*
X014043Y015001D01*
X014100Y015005D01*
X014156Y015005D01*
X014213Y015001D01*
X014269Y014993D01*
X014324Y014981D01*
X014379Y014965D01*
X014432Y014946D01*
X014484Y014923D01*
X014533Y014896D01*
X014582Y014866D01*
X014627Y014833D01*
X014671Y014797D01*
X014711Y014757D01*
X014749Y014715D01*
X014784Y014671D01*
X014816Y014624D01*
X014844Y014575D01*
X014869Y014524D01*
X014890Y014471D01*
X014908Y014418D01*
X014921Y014363D01*
X014931Y014307D01*
X014937Y014251D01*
X014939Y014194D01*
X014937Y014137D01*
X014931Y014081D01*
X014921Y014025D01*
X014908Y013970D01*
X014890Y013917D01*
X014869Y013864D01*
X014844Y013813D01*
X014816Y013764D01*
X014784Y013717D01*
X014749Y013673D01*
X014711Y013631D01*
X014671Y013591D01*
X014627Y013555D01*
X014582Y013522D01*
X014534Y013492D01*
X014484Y013465D01*
X014432Y013442D01*
X014379Y013423D01*
X014324Y013407D01*
X014269Y013395D01*
X014213Y013387D01*
X014156Y013383D01*
X014100Y013383D01*
X014043Y013387D01*
X013987Y013395D01*
X013932Y013407D01*
X013877Y013423D01*
X013824Y013442D01*
X013772Y013465D01*
X013722Y013492D01*
X013674Y013522D01*
X013629Y013555D01*
X013585Y013591D01*
X013545Y013631D01*
X013507Y013673D01*
X013472Y013717D01*
X013440Y013764D01*
X013412Y013813D01*
X013387Y013864D01*
X013366Y013917D01*
X013348Y013970D01*
X013335Y014025D01*
X013325Y014081D01*
X013319Y014137D01*
X013317Y014194D01*
X010100Y005631D02*
X010100Y004931D01*
X009879Y004711D01*
X009879Y004600D01*
X009181Y003901D01*
X009181Y004159D01*
X009511Y004159D01*
X009806Y004453D01*
X009806Y004527D01*
X009769Y004564D01*
X009217Y004564D01*
X009181Y004527D01*
X009291Y004527D01*
X009585Y004232D01*
X009585Y004159D01*
X009806Y003938D01*
X009806Y003717D01*
X009842Y003680D01*
X009806Y003680D01*
X009291Y003165D01*
X009291Y003460D01*
X009254Y003496D01*
X009254Y003680D01*
X009291Y003717D01*
X009291Y003680D01*
X009585Y003386D01*
X009585Y003312D01*
X010247Y002650D01*
X009254Y002650D01*
X009181Y002723D01*
X009181Y002944D01*
X009217Y002981D01*
X009622Y002981D01*
X009695Y002907D01*
X009695Y002834D01*
X009622Y002760D01*
X009572Y003920D02*
X009574Y003976D01*
X009580Y004031D01*
X009590Y004086D01*
X009603Y004140D01*
X009621Y004192D01*
X009642Y004244D01*
X009666Y004294D01*
X009694Y004342D01*
X009726Y004388D01*
X009760Y004431D01*
X009798Y004472D01*
X009838Y004511D01*
X009881Y004546D01*
X009927Y004578D01*
X009974Y004607D01*
X010023Y004633D01*
X010075Y004654D01*
X010127Y004673D01*
X010181Y004687D01*
X010235Y004698D01*
X010291Y004705D01*
X010346Y004708D01*
X010402Y004707D01*
X010457Y004702D01*
X010512Y004693D01*
X010566Y004681D01*
X010619Y004664D01*
X010671Y004644D01*
X010721Y004620D01*
X010770Y004593D01*
X010816Y004562D01*
X010861Y004529D01*
X010902Y004492D01*
X010941Y004452D01*
X010977Y004410D01*
X011010Y004365D01*
X011040Y004318D01*
X011066Y004269D01*
X011089Y004218D01*
X011109Y004166D01*
X011124Y004113D01*
X011136Y004058D01*
X011144Y004003D01*
X011148Y003948D01*
X011148Y003892D01*
X011144Y003837D01*
X011136Y003782D01*
X011124Y003727D01*
X011109Y003674D01*
X011089Y003622D01*
X011066Y003571D01*
X011040Y003522D01*
X011010Y003475D01*
X010977Y003430D01*
X010941Y003388D01*
X010902Y003348D01*
X010861Y003311D01*
X010816Y003278D01*
X010770Y003247D01*
X010721Y003220D01*
X010671Y003196D01*
X010619Y003176D01*
X010566Y003159D01*
X010512Y003147D01*
X010457Y003138D01*
X010402Y003133D01*
X010346Y003132D01*
X010291Y003135D01*
X010235Y003142D01*
X010181Y003153D01*
X010127Y003167D01*
X010075Y003186D01*
X010023Y003207D01*
X009974Y003233D01*
X009927Y003262D01*
X009881Y003294D01*
X009838Y003329D01*
X009798Y003368D01*
X009760Y003409D01*
X009726Y003452D01*
X009694Y003498D01*
X009666Y003546D01*
X009642Y003596D01*
X009621Y003648D01*
X009603Y003700D01*
X009590Y003754D01*
X009580Y003809D01*
X009574Y003864D01*
X009572Y003920D01*
X009107Y004453D02*
X009107Y004785D01*
X009217Y004895D01*
X009364Y004895D01*
X010100Y005631D01*
X010138Y005484D02*
X009107Y004453D01*
X010138Y005484D02*
X010210Y005484D01*
X011534Y004674D02*
X011534Y003312D01*
X012379Y002466D01*
X011901Y002466D02*
X011901Y002540D01*
X011240Y003202D01*
X011423Y002687D02*
X011423Y002650D01*
X011571Y002503D01*
X020960Y004428D02*
X021195Y004194D01*
X021854Y004194D01*
X021918Y004258D01*
X021918Y004428D01*
X021343Y005003D01*
X021343Y005046D01*
D11*
X011298Y020433D02*
X010998Y020433D01*
X010923Y020508D01*
X010923Y020658D01*
X010998Y020733D01*
X011298Y020733D01*
X011373Y020658D01*
X011373Y020508D01*
X011298Y020433D01*
X011373Y020948D02*
X010923Y020948D01*
X011073Y020948D02*
X011073Y021174D01*
X011148Y021249D01*
X011298Y021249D01*
X011373Y021174D01*
X011373Y020948D01*
X011373Y021464D02*
X010923Y021464D01*
X010923Y021764D01*
X010923Y021980D02*
X011373Y021980D01*
X010923Y022280D01*
X011373Y022280D01*
X011373Y022495D02*
X010923Y022495D01*
X011148Y022495D02*
X011148Y022796D01*
X011148Y023011D02*
X011148Y023311D01*
X011223Y023311D02*
X010923Y023311D01*
X010923Y023527D02*
X011373Y023527D01*
X011373Y023752D01*
X011298Y023827D01*
X011148Y023827D01*
X011073Y023752D01*
X011073Y023527D01*
X011073Y023677D02*
X010923Y023827D01*
X010923Y024042D02*
X010923Y024267D01*
X010998Y024342D01*
X011298Y024342D01*
X011373Y024267D01*
X011373Y024042D01*
X010923Y024042D01*
X010923Y024558D02*
X011073Y024708D01*
X010923Y024858D01*
X011373Y024858D01*
X011223Y025073D02*
X011373Y025224D01*
X011223Y025374D01*
X010923Y025374D01*
X010923Y025589D02*
X011373Y025589D01*
X011373Y025814D01*
X011298Y025889D01*
X011148Y025889D01*
X011073Y025814D01*
X011073Y025589D01*
X011073Y025739D02*
X010923Y025889D01*
X010923Y026105D02*
X010923Y026405D01*
X010923Y026620D02*
X010923Y026695D01*
X010998Y026695D01*
X010998Y026620D01*
X010923Y026620D01*
X010998Y026878D02*
X010923Y026953D01*
X010923Y027103D01*
X010998Y027178D01*
X010998Y027394D02*
X010923Y027469D01*
X010923Y027619D01*
X010998Y027694D01*
X011298Y027694D01*
X011373Y027619D01*
X011373Y027469D01*
X011298Y027394D01*
X010998Y027394D01*
X011298Y027178D02*
X011373Y027103D01*
X011373Y026953D01*
X011298Y026878D01*
X010998Y026878D01*
X011373Y026405D02*
X011373Y026105D01*
X010923Y026105D01*
X011148Y026105D02*
X011148Y026255D01*
X011148Y025374D02*
X011148Y025073D01*
X011223Y025073D02*
X010923Y025073D01*
X010923Y024558D02*
X011373Y024558D01*
X011223Y023311D02*
X011373Y023161D01*
X011223Y023011D01*
X010923Y023011D01*
X010923Y022796D02*
X011373Y022796D01*
X011373Y021764D02*
X011373Y021464D01*
X011148Y021464D02*
X011148Y021614D01*
X010998Y027909D02*
X010998Y027985D01*
X010923Y027985D01*
X010923Y027909D01*
X010998Y027909D01*
X010998Y028167D02*
X010923Y028167D01*
X010923Y028468D01*
X010923Y028683D02*
X011223Y028683D01*
X011373Y028833D01*
X011223Y028983D01*
X010923Y028983D01*
X011148Y028983D02*
X011148Y028683D01*
X011298Y028468D02*
X010998Y028167D01*
X011373Y028167D02*
X011373Y028468D01*
X011298Y028468D01*
D12*
X005747Y027535D02*
X005227Y027535D01*
X005227Y026535D02*
X005747Y026535D01*
X005747Y025535D02*
X005227Y025535D01*
X005227Y024535D02*
X005747Y024535D01*
X005747Y023535D02*
X005227Y023535D01*
X005227Y022535D02*
X005747Y022535D01*
X005747Y021535D02*
X005227Y021535D01*
X005227Y020535D02*
X005747Y020535D01*
X005747Y019535D02*
X005227Y019535D01*
X005227Y018535D02*
X005747Y018535D01*
X002747Y018535D02*
X002227Y018535D01*
X002227Y019535D02*
X002747Y019535D01*
X002747Y020535D02*
X002227Y020535D01*
X002227Y021535D02*
X002747Y021535D01*
X002747Y022535D02*
X002227Y022535D01*
X002227Y023535D02*
X002747Y023535D01*
X002747Y024535D02*
X002227Y024535D01*
X002227Y025535D02*
X002747Y025535D01*
X002747Y026535D02*
X002227Y026535D01*
X002227Y027535D02*
X002747Y027535D01*
X003692Y016780D02*
X003692Y016260D01*
X004692Y016260D02*
X004692Y016780D01*
X005692Y016780D02*
X005692Y016260D01*
X006692Y016260D02*
X006692Y016780D01*
X006692Y013780D02*
X006692Y013260D01*
X005692Y013260D02*
X005692Y013780D01*
X004692Y013780D02*
X004692Y013260D01*
X003692Y013260D02*
X003692Y013780D01*
X024113Y004003D02*
X024633Y004003D01*
X027113Y004003D02*
X027633Y004003D01*
X027674Y003365D02*
X027154Y003365D01*
X030154Y003365D02*
X030674Y003365D01*
X033115Y009488D02*
X033115Y010008D01*
X034115Y010008D02*
X034115Y009488D01*
X035115Y009488D02*
X035115Y010008D01*
X036115Y010008D02*
X036115Y009488D01*
X037115Y009488D02*
X037115Y010008D01*
X038115Y010008D02*
X038115Y009488D01*
X039115Y009488D02*
X039115Y010008D01*
X040115Y010008D02*
X040115Y009488D01*
X041115Y009488D02*
X041115Y010008D01*
X042115Y010008D02*
X042115Y009488D01*
X043115Y009488D02*
X043115Y010008D01*
X044115Y010008D02*
X044115Y009488D01*
X045115Y009488D02*
X045115Y010008D01*
X046115Y010008D02*
X046115Y009488D01*
X047115Y009488D02*
X047115Y010008D01*
X048115Y010008D02*
X048115Y009488D01*
X049115Y009488D02*
X049115Y010008D01*
X050115Y010008D02*
X050115Y009488D01*
X051115Y009488D02*
X051115Y010008D01*
X052115Y010008D02*
X052115Y009488D01*
X052115Y015488D02*
X052115Y016008D01*
X051115Y016008D02*
X051115Y015488D01*
X050115Y015488D02*
X050115Y016008D01*
X049115Y016008D02*
X049115Y015488D01*
X048115Y015488D02*
X048115Y016008D01*
X047115Y016008D02*
X047115Y015488D01*
X046115Y015488D02*
X046115Y016008D01*
X045115Y016008D02*
X045115Y015488D01*
X044115Y015488D02*
X044115Y016008D01*
X043115Y016008D02*
X043115Y015488D01*
X042115Y015488D02*
X042115Y016008D01*
X041115Y016008D02*
X041115Y015488D01*
X040115Y015488D02*
X040115Y016008D01*
X039115Y016008D02*
X039115Y015488D01*
X038115Y015488D02*
X038115Y016008D01*
X037115Y016008D02*
X037115Y015488D01*
X036115Y015488D02*
X036115Y016008D01*
X035115Y016008D02*
X035115Y015488D01*
X034115Y015488D02*
X034115Y016008D01*
X033115Y016008D02*
X033115Y015488D01*
D13*
X022748Y015379D02*
X022748Y014779D01*
X021748Y014779D02*
X021748Y015379D01*
X020748Y015379D02*
X020748Y014779D01*
X015116Y008590D02*
X015116Y007990D01*
X014116Y007990D02*
X014116Y008590D01*
X013116Y008590D02*
X013116Y007990D01*
X002352Y013962D02*
X001752Y013962D01*
X001852Y014962D02*
X002452Y014962D01*
X002352Y015962D02*
X001752Y015962D01*
X001787Y018535D02*
X001187Y018535D01*
X001187Y019535D02*
X001787Y019535D01*
X001787Y020535D02*
X001187Y020535D01*
X001187Y021535D02*
X001787Y021535D01*
X001787Y022535D02*
X001187Y022535D01*
X001187Y023535D02*
X001787Y023535D01*
X001787Y024535D02*
X001187Y024535D01*
X001187Y025535D02*
X001787Y025535D01*
X001787Y026535D02*
X001187Y026535D01*
X001187Y027535D02*
X001787Y027535D01*
X006187Y027535D02*
X006787Y027535D01*
X006787Y026535D02*
X006187Y026535D01*
X006187Y025535D02*
X006787Y025535D01*
X006787Y024535D02*
X006187Y024535D01*
X006187Y023535D02*
X006787Y023535D01*
X006787Y022535D02*
X006187Y022535D01*
X006187Y021535D02*
X006787Y021535D01*
X006787Y020535D02*
X006187Y020535D01*
X006187Y019535D02*
X006787Y019535D01*
X006787Y018535D02*
X006187Y018535D01*
X022365Y021948D02*
X022365Y022548D01*
X023365Y022548D02*
X023365Y021948D01*
X024365Y021948D02*
X024365Y022548D01*
X025365Y022548D02*
X025365Y021948D01*
X026365Y021948D02*
X026365Y022548D01*
X027365Y022548D02*
X027365Y021948D01*
X028365Y021948D02*
X028365Y022548D01*
X029365Y022548D02*
X029365Y021948D01*
X031365Y021948D02*
X031365Y022548D01*
X032365Y022548D02*
X032365Y021948D01*
X033365Y021948D02*
X033365Y022548D01*
X034365Y022548D02*
X034365Y021948D01*
X035365Y021948D02*
X035365Y022548D01*
X036365Y022548D02*
X036365Y021948D01*
X037365Y021948D02*
X037365Y022548D01*
X038365Y022548D02*
X038365Y021948D01*
X040365Y021948D02*
X040365Y022548D01*
X041365Y022548D02*
X041365Y021948D01*
X042365Y021948D02*
X042365Y022548D01*
X043365Y022548D02*
X043365Y021948D01*
X044365Y021948D02*
X044365Y022548D01*
X045365Y022548D02*
X045365Y021948D01*
X046365Y021948D02*
X046365Y022548D01*
X047365Y022548D02*
X047365Y021948D01*
X049365Y021948D02*
X049365Y022548D01*
X050365Y022548D02*
X050365Y021948D01*
X051365Y021948D02*
X051365Y022548D01*
X052365Y022548D02*
X052365Y021948D01*
X053365Y021948D02*
X053365Y022548D01*
X054365Y022548D02*
X054365Y021948D01*
X055365Y021948D02*
X055365Y022548D01*
X056365Y022548D02*
X056365Y021948D01*
X056365Y026948D02*
X056365Y027548D01*
X055365Y027548D02*
X055365Y026948D01*
X054365Y026948D02*
X054365Y027548D01*
X053365Y027548D02*
X053365Y026948D01*
X052365Y026948D02*
X052365Y027548D01*
X051365Y027548D02*
X051365Y026948D01*
X050365Y026948D02*
X050365Y027548D01*
X049365Y027548D02*
X049365Y026948D01*
X047365Y026948D02*
X047365Y027548D01*
X046365Y027548D02*
X046365Y026948D01*
X045365Y026948D02*
X045365Y027548D01*
X044365Y027548D02*
X044365Y026948D01*
X043365Y026948D02*
X043365Y027548D01*
X042365Y027548D02*
X042365Y026948D01*
X041365Y026948D02*
X041365Y027548D01*
X040365Y027548D02*
X040365Y026948D01*
X038365Y026948D02*
X038365Y027548D01*
X037365Y027548D02*
X037365Y026948D01*
X036365Y026948D02*
X036365Y027548D01*
X035365Y027548D02*
X035365Y026948D01*
X034365Y026948D02*
X034365Y027548D01*
X033365Y027548D02*
X033365Y026948D01*
X032365Y026948D02*
X032365Y027548D01*
X031365Y027548D02*
X031365Y026948D01*
X029365Y026948D02*
X029365Y027548D01*
X028365Y027548D02*
X028365Y026948D01*
X027365Y026948D02*
X027365Y027548D01*
X026365Y027548D02*
X026365Y026948D01*
X025365Y026948D02*
X025365Y027548D01*
X024365Y027548D02*
X024365Y026948D01*
X023365Y026948D02*
X023365Y027548D01*
X022365Y027548D02*
X022365Y026948D01*
X018542Y030591D02*
X018542Y031191D01*
X017542Y031191D02*
X017542Y030591D01*
X020188Y030628D02*
X020188Y031228D01*
X021188Y031228D02*
X021188Y030628D01*
X031315Y008259D02*
X031915Y008259D01*
X033187Y008259D02*
X033787Y008259D01*
X035101Y008259D02*
X035701Y008259D01*
X035701Y007259D02*
X035101Y007259D01*
X033787Y007259D02*
X033187Y007259D01*
X031915Y007259D02*
X031315Y007259D01*
X031315Y006259D02*
X031915Y006259D01*
X033187Y006259D02*
X033787Y006259D01*
X035101Y006259D02*
X035701Y006259D01*
X051081Y006560D02*
X051081Y005960D01*
X052081Y005960D02*
X052081Y006560D01*
X053081Y006560D02*
X053081Y005960D01*
X054081Y005960D02*
X054081Y006560D01*
X055081Y006560D02*
X055081Y005960D01*
X056081Y005960D02*
X056081Y006560D01*
D14*
X022717Y005513D02*
X022717Y004808D01*
X020749Y004808D02*
X020749Y005513D01*
X015218Y005513D02*
X015218Y004808D01*
X013250Y004808D02*
X013250Y005513D01*
X013282Y029814D02*
X013282Y030519D01*
X015250Y030519D02*
X015250Y029814D01*
X022897Y029858D02*
X022897Y030563D01*
X024865Y030563D02*
X024865Y029858D01*
X026903Y029858D02*
X026903Y030563D01*
X028871Y030563D02*
X028871Y029858D01*
X031901Y029858D02*
X031901Y030563D01*
X033870Y030563D02*
X033870Y029858D01*
X035907Y029858D02*
X035907Y030563D01*
X037876Y030563D02*
X037876Y029858D01*
X040906Y029895D02*
X040906Y030600D01*
X042874Y030600D02*
X042874Y029895D01*
X044912Y029895D02*
X044912Y030600D01*
X046880Y030600D02*
X046880Y029895D01*
X049837Y029895D02*
X049837Y030600D01*
X051805Y030600D02*
X051805Y029895D01*
X053806Y029895D02*
X053806Y030600D01*
X055774Y030600D02*
X055774Y029895D01*
D15*
X057365Y027248D03*
X056365Y025748D03*
X057365Y025248D03*
X057365Y024498D03*
X054365Y025748D03*
X048365Y025248D03*
X048365Y024498D03*
X047365Y025748D03*
X045365Y025748D03*
X048365Y027248D03*
X039365Y027248D03*
X038365Y025748D03*
X039365Y025248D03*
X039365Y024498D03*
X036365Y025748D03*
X030365Y025248D03*
X029365Y025748D03*
X030365Y024498D03*
X027365Y025748D03*
X030365Y027248D03*
X030365Y020498D03*
X026569Y017951D03*
X025540Y017951D03*
X025540Y014951D03*
X026569Y014951D03*
X039365Y020498D03*
X042129Y018255D03*
X042066Y017190D03*
X040066Y017190D03*
X044129Y018255D03*
X048365Y020498D03*
X057365Y020498D03*
X061960Y011989D03*
X063411Y012008D03*
X055978Y010067D03*
X055978Y008067D03*
X061960Y007989D03*
X063411Y008008D03*
X065735Y008388D03*
X067735Y008388D03*
X047093Y006367D03*
X045093Y006367D03*
X043816Y006336D03*
X041816Y006336D03*
X027263Y004926D03*
X024263Y004926D03*
X011506Y009180D03*
X006681Y009329D03*
X005670Y009355D03*
X004807Y009342D03*
X001281Y008391D03*
X001303Y007736D03*
X001303Y004736D03*
X001281Y011391D03*
X004807Y012342D03*
X005670Y012355D03*
X006681Y012329D03*
X011506Y012180D03*
X001455Y028582D03*
X001455Y031582D03*
D16*
X017579Y028906D03*
X020005Y028943D03*
X026365Y025748D03*
X026365Y023748D03*
X027615Y019748D03*
X029615Y019748D03*
X036615Y019748D03*
X038615Y019748D03*
X045615Y019748D03*
X047615Y019748D03*
X054615Y019748D03*
X056615Y019748D03*
X053365Y023748D03*
X053365Y025748D03*
X044365Y025748D03*
X044365Y023748D03*
X035365Y023748D03*
X035365Y025748D03*
X041008Y014693D03*
X043008Y014693D03*
X043481Y013482D03*
X041481Y013482D03*
X028851Y013667D03*
X026851Y013667D03*
D17*
X025365Y019748D03*
X024365Y019748D03*
X024365Y020748D03*
X025365Y020748D03*
X033365Y020748D03*
X034365Y020748D03*
X034365Y019748D03*
X033365Y019748D03*
X042365Y019748D03*
X043365Y019748D03*
X043365Y020748D03*
X042365Y020748D03*
X051365Y020748D03*
X052365Y020748D03*
X052365Y019748D03*
X051365Y019748D03*
D18*
X058979Y024748D02*
X060002Y024748D01*
X062229Y024748D02*
X063252Y024748D01*
X063252Y026748D02*
X062229Y026748D01*
X060002Y026748D02*
X058979Y026748D01*
X058979Y028748D02*
X060002Y028748D01*
X062229Y028748D02*
X063252Y028748D01*
X063252Y030748D02*
X062229Y030748D01*
X060002Y030748D02*
X058979Y030748D01*
X018441Y012731D02*
X017417Y012731D01*
X017417Y010731D02*
X018441Y010731D01*
X018441Y008731D02*
X017417Y008731D01*
X017417Y006731D02*
X018441Y006731D01*
D19*
X025716Y007059D03*
X025716Y006059D03*
X028319Y006059D03*
X028319Y007059D03*
X053710Y010025D03*
X063482Y006738D03*
X063482Y005738D03*
X066430Y005811D03*
X066430Y006811D03*
X053710Y015025D03*
D20*
X031175Y012457D03*
X030175Y012457D03*
X029175Y012457D03*
X029175Y011457D03*
X030175Y011457D03*
X031175Y011457D03*
X006034Y031482D03*
X005034Y031482D03*
X004034Y031482D03*
X004034Y032482D03*
X005034Y032482D03*
X006034Y032482D03*
D21*
X065507Y028757D03*
X067672Y028757D03*
X067672Y027103D03*
X065507Y027103D03*
X065507Y025450D03*
X067672Y025450D03*
X067672Y023796D03*
X065507Y023796D03*
X065507Y022143D03*
X067672Y022143D03*
X067672Y020489D03*
X065507Y020489D03*
X065507Y018836D03*
X067672Y018836D03*
X067672Y017182D03*
X065507Y017182D03*
X065507Y015529D03*
X067672Y015529D03*
X067672Y013875D03*
X065507Y013875D03*
X065507Y012222D03*
X067672Y012222D03*
X067672Y010568D03*
X065507Y010568D03*
D22*
X045637Y008015D03*
X043637Y008015D03*
D23*
X021005Y028943D03*
X018579Y028906D03*
D24*
X004852Y028637D03*
X002293Y028637D03*
X002293Y030409D03*
X004852Y030409D03*
X003791Y012441D03*
X002737Y012441D03*
X002737Y009441D03*
X003791Y009441D03*
X004208Y007997D03*
X005192Y007997D03*
X005192Y007217D03*
X004208Y007217D03*
X058262Y008369D03*
X060821Y008369D03*
X060821Y010141D03*
X058262Y010141D03*
D25*
X063705Y015736D03*
X018037Y004566D03*
X017788Y022406D03*
X017814Y026061D03*
D26*
X018967Y026095D03*
X021969Y026064D03*
X021918Y023480D03*
X019110Y023556D03*
X015788Y022406D03*
X015814Y026061D03*
X020248Y013514D03*
X025685Y013390D03*
X025714Y012031D03*
X018037Y002566D03*
X048126Y006331D03*
X049887Y006306D03*
X061705Y015736D03*
D27*
X007070Y006147D03*
X002330Y006147D03*
D28*
X001376Y003720D03*
X001376Y002720D03*
X001440Y012029D03*
X001440Y013029D03*
D29*
X024363Y019713D02*
X025405Y019713D01*
X030363Y020466D02*
X030363Y021254D01*
X030376Y020466D02*
X030363Y020466D01*
X033317Y019670D02*
X034359Y019670D01*
X034359Y019755D01*
X039368Y020478D02*
X039380Y020478D01*
X039380Y021180D01*
X042355Y019713D02*
X043397Y019713D01*
X048361Y020441D02*
X048361Y021204D01*
X051351Y019691D02*
X052414Y019691D01*
X057366Y020478D02*
X057366Y021241D01*
X057390Y020478D02*
X057366Y020478D01*
X053365Y023748D02*
X064365Y023748D01*
X064365Y024623D01*
X064365Y030748D01*
X059490Y030748D01*
X058740Y031998D02*
X066990Y031998D01*
X068615Y030373D01*
X068615Y025623D01*
X068615Y022248D01*
X068615Y019498D01*
X068615Y005623D01*
X067740Y018873D02*
X065740Y018873D01*
X065490Y019123D01*
X065490Y020498D01*
X068115Y018998D02*
X068615Y019498D01*
X068115Y018998D02*
X067865Y018998D01*
X067740Y018873D01*
X067740Y022123D02*
X068490Y022123D01*
X068615Y022248D01*
X068490Y025498D02*
X067740Y025498D01*
X068490Y025498D02*
X068615Y025623D01*
X068615Y030373D02*
X068615Y031623D01*
X068240Y031998D01*
X053615Y031998D01*
X053490Y031873D01*
X053115Y031873D01*
X053865Y030248D02*
X053865Y029248D01*
X053365Y028748D01*
X053365Y027248D01*
X052365Y027248D02*
X052365Y028748D01*
X051865Y029248D01*
X051865Y030248D01*
X049865Y030248D02*
X049865Y029748D01*
X051365Y028248D01*
X051365Y027248D01*
X050365Y027248D02*
X050365Y027748D01*
X048365Y029748D01*
X048365Y031748D01*
X046865Y030248D02*
X046865Y029748D01*
X045365Y028248D01*
X045365Y027248D01*
X046365Y027248D02*
X046365Y026248D01*
X045865Y025748D01*
X045365Y025748D01*
X044365Y025748D01*
X047365Y025748D02*
X047365Y027248D01*
X048365Y027248D01*
X049365Y027248D02*
X049365Y024748D01*
X048365Y024748D02*
X048365Y025248D01*
X047365Y027248D02*
X047365Y028748D01*
X048365Y029748D01*
X044865Y029248D02*
X044865Y030248D01*
X044865Y029248D02*
X044365Y028748D01*
X044365Y027248D01*
X043365Y027248D02*
X043365Y028748D01*
X042865Y029248D01*
X042865Y030248D01*
X040865Y030248D02*
X040865Y029748D01*
X042365Y028248D01*
X042365Y027248D01*
X041365Y027248D02*
X041365Y027748D01*
X039365Y029748D01*
X039365Y031748D01*
X037865Y030248D02*
X037865Y029748D01*
X036365Y028248D01*
X036365Y027248D01*
X035365Y027248D02*
X035365Y028748D01*
X035865Y029248D01*
X035865Y030248D01*
X033865Y030248D02*
X033865Y029248D01*
X034365Y028748D01*
X034365Y027248D01*
X033365Y027248D02*
X033365Y028248D01*
X031865Y029748D01*
X031865Y030248D01*
X030365Y029748D02*
X032365Y027748D01*
X032365Y027248D01*
X031365Y027248D02*
X031365Y024748D01*
X030365Y024748D02*
X030365Y025248D01*
X029365Y025748D02*
X029365Y027248D01*
X030365Y027248D01*
X029365Y027248D02*
X029365Y028748D01*
X030365Y029748D01*
X030365Y031748D01*
X028865Y030248D02*
X028865Y029748D01*
X027365Y028248D01*
X027365Y027248D01*
X026365Y027248D02*
X026365Y028748D01*
X026865Y029248D01*
X026865Y030248D01*
X024865Y030248D02*
X024865Y029248D01*
X025365Y028748D01*
X025365Y027248D01*
X024365Y027248D02*
X024365Y028248D01*
X022865Y029748D01*
X022865Y030248D01*
X022378Y027323D02*
X022378Y024844D01*
X022378Y025120D01*
X026365Y025748D02*
X027365Y025748D01*
X027865Y025748D01*
X028365Y026248D01*
X028365Y027248D01*
X035365Y025748D02*
X036365Y025748D01*
X036865Y025748D01*
X037365Y026248D01*
X037365Y027248D01*
X038365Y027248D02*
X038365Y025748D01*
X039365Y025248D02*
X039365Y024748D01*
X040365Y024748D02*
X040365Y027248D01*
X039365Y027248D02*
X038365Y027248D01*
X038365Y028748D01*
X039365Y029748D01*
X026271Y023722D02*
X053365Y023748D01*
X053365Y025748D02*
X054365Y025748D01*
X054865Y025748D01*
X055365Y026248D01*
X055365Y027248D01*
X054365Y027248D02*
X054365Y028248D01*
X055865Y029748D01*
X055865Y030248D01*
X056865Y029248D02*
X056865Y031248D01*
X056865Y029248D02*
X056365Y028748D01*
X056365Y027248D01*
X056365Y025748D01*
X057365Y025248D02*
X057365Y024748D01*
X057365Y027248D02*
X056365Y027248D01*
X067490Y031873D02*
X067615Y031873D01*
X068240Y031248D01*
X068240Y031623D01*
D30*
X068331Y032145D02*
X068184Y032293D01*
X068144Y032346D02*
X017132Y032346D01*
X022270Y031748D02*
X030365Y031748D01*
X039365Y031748D01*
X048365Y031748D01*
X057365Y031748D01*
X057990Y031748D01*
X057365Y031748D02*
X057365Y027748D01*
X059490Y027748D01*
X059490Y028748D01*
X062865Y028748D01*
X062865Y026873D01*
X062740Y026748D01*
X059615Y026748D01*
X059615Y027748D01*
X059990Y028123D01*
X061990Y028123D01*
X062115Y027998D01*
X062115Y027373D01*
X060240Y027373D01*
X059990Y027623D01*
X059490Y026748D02*
X059490Y028748D01*
X068144Y032348D02*
X068888Y031604D01*
X068888Y004492D01*
X067611Y003216D01*
X022718Y004924D02*
X022674Y004968D01*
X022674Y006735D01*
X021748Y007661D01*
X021748Y015380D01*
X020531Y015392D02*
X020134Y015392D01*
X020115Y015169D01*
X020115Y012430D01*
X018527Y010841D01*
X018477Y010759D02*
X018477Y008704D01*
X018354Y008582D01*
X017998Y008589D02*
X017998Y010886D01*
X018324Y010913D02*
X018477Y010759D01*
X017954Y009696D02*
X020557Y012299D01*
X020531Y015392D01*
X020549Y012191D02*
X018304Y009517D01*
X018086Y009517D01*
X017954Y009649D02*
X017954Y009696D01*
X017601Y007088D02*
X017424Y006911D01*
X017424Y006381D01*
X017689Y006117D01*
X019188Y006117D01*
X019939Y005366D01*
X020160Y004880D02*
X020865Y004880D01*
X020954Y004968D01*
X020954Y005985D01*
X019851Y007088D01*
X017601Y007088D01*
X017777Y006735D02*
X019055Y006735D01*
X020645Y005145D01*
X020160Y004880D02*
X018791Y006249D01*
X017821Y006249D01*
X022270Y024744D02*
X022821Y024744D01*
X022543Y024764D02*
X030365Y024748D01*
X031365Y024748D01*
X039365Y024748D01*
X040365Y024748D01*
X048365Y024748D01*
X049365Y024748D01*
X057365Y024748D01*
X062865Y024748D01*
X022215Y024885D02*
X022151Y024822D01*
X022151Y024971D01*
X022215Y024885D02*
X022215Y027312D01*
D31*
X022740Y023123D02*
X031365Y023123D01*
X031365Y022248D01*
X032365Y022248D02*
X032365Y020748D01*
X033365Y019748D01*
X034365Y019748D02*
X036615Y019748D01*
X038615Y019748D02*
X039365Y020498D01*
X040365Y020498D02*
X040365Y022248D01*
X040365Y023123D01*
X048990Y023123D01*
X049365Y022748D01*
X049365Y022248D01*
X050365Y022248D02*
X050365Y020748D01*
X051365Y019748D01*
X052365Y019748D02*
X052615Y019748D01*
X054615Y019748D01*
X055365Y018998D02*
X053615Y017248D01*
X049115Y017248D01*
X048115Y016248D01*
X048115Y015748D01*
X049115Y015748D02*
X050115Y016748D01*
X053865Y016748D01*
X055865Y018748D01*
X055865Y020998D01*
X056365Y021498D01*
X056365Y022248D01*
X055365Y022248D02*
X055365Y018998D01*
X056615Y019748D02*
X057365Y020498D01*
X058115Y020123D02*
X053990Y015998D01*
X052365Y015998D01*
X052115Y015748D01*
X053740Y014078D02*
X043159Y014129D01*
X043115Y015248D01*
X043099Y015796D02*
X043099Y017244D01*
X044141Y018286D01*
X042100Y018244D02*
X042036Y018180D01*
X042036Y017265D01*
X042057Y017222D02*
X042079Y017201D01*
X042079Y015817D01*
X041164Y015668D02*
X041079Y015753D01*
X041079Y016413D01*
X040291Y017201D01*
X039994Y017201D01*
X038115Y015748D02*
X037865Y015998D01*
X037865Y020998D01*
X038365Y021498D01*
X038365Y022248D01*
X037365Y022248D02*
X037365Y016998D01*
X037115Y016748D01*
X037115Y015748D01*
X036115Y015748D02*
X035865Y015998D01*
X035865Y017248D01*
X035365Y017748D01*
X029865Y017748D01*
X028865Y018748D01*
X028865Y021248D01*
X029365Y021748D01*
X029365Y022248D01*
X028365Y022248D02*
X028365Y018498D01*
X029615Y017248D01*
X034865Y017248D01*
X035115Y016998D01*
X035115Y015748D01*
X034146Y015732D02*
X034146Y016477D01*
X033933Y016690D01*
X033997Y016669D02*
X034103Y016562D01*
X033997Y016669D02*
X031084Y016669D01*
X031084Y016690D01*
X031105Y016136D02*
X031126Y016115D01*
X032487Y016115D01*
X032806Y015796D01*
X033146Y015796D01*
X032404Y015339D02*
X032907Y014837D01*
X040851Y014837D01*
X041005Y014683D01*
X040193Y013795D02*
X042371Y011618D01*
X043434Y013513D02*
X052363Y013513D01*
X055941Y009935D01*
X055992Y010038D02*
X055992Y010089D01*
X056043Y010140D01*
X055967Y008070D02*
X056069Y007968D01*
X056069Y006307D01*
X065772Y008367D02*
X065772Y009042D01*
X065803Y009073D01*
X067733Y008367D02*
X068498Y008367D01*
X068621Y008490D01*
X065424Y014028D02*
X065505Y014286D01*
X065490Y015623D01*
X065365Y015623D01*
X064615Y016373D01*
X064633Y021319D01*
X066311Y021319D02*
X066543Y021498D01*
X066615Y021623D02*
X066615Y024373D01*
X066240Y024623D01*
X064365Y024623D01*
X065490Y023873D02*
X065490Y023748D01*
X064490Y022748D01*
X058115Y022748D01*
X058115Y020123D01*
X054365Y022248D02*
X053365Y022248D01*
X052365Y022248D02*
X052365Y020748D01*
X051365Y020748D02*
X051365Y022248D01*
X048365Y020498D02*
X047615Y019748D01*
X046865Y020998D02*
X047365Y021498D01*
X047365Y022248D01*
X046365Y022248D02*
X046365Y018248D01*
X044115Y015998D01*
X044115Y015748D01*
X045115Y015748D02*
X045115Y016248D01*
X046865Y017998D01*
X046865Y020998D01*
X045615Y019748D02*
X043365Y019748D01*
X042365Y019748D02*
X041365Y020748D01*
X041365Y022248D01*
X042365Y022248D02*
X042365Y020748D01*
X043365Y020748D02*
X043365Y022248D01*
X044365Y022248D02*
X045365Y022248D01*
X040365Y023123D02*
X031365Y023123D01*
X033365Y022248D02*
X033365Y020748D01*
X034365Y020748D02*
X034365Y022248D01*
X035365Y022248D02*
X036365Y022248D01*
X039115Y019248D02*
X040365Y020498D01*
X039115Y019248D02*
X039115Y015748D01*
X040193Y013795D02*
X032972Y013808D01*
X032971Y013809D02*
X032356Y014407D01*
X029907Y014407D01*
X027967Y014403D01*
X027988Y013509D01*
X027988Y011636D01*
X028754Y011613D01*
X028958Y011430D01*
X029141Y011366D01*
X027238Y014960D02*
X026510Y014960D01*
X027238Y014960D02*
X027617Y015339D01*
X032404Y015339D01*
X029615Y019748D02*
X030365Y020498D01*
X027615Y019748D02*
X025365Y019748D01*
X024365Y019748D02*
X023365Y020748D01*
X023365Y022248D01*
X022365Y022248D02*
X022365Y022748D01*
X022740Y023123D01*
X024365Y022248D02*
X024365Y020748D01*
X025365Y020748D02*
X025365Y022248D01*
X026365Y022248D02*
X027365Y022248D01*
X042133Y013743D02*
X042184Y013794D01*
X038814Y008919D02*
X038723Y008919D01*
X066365Y021373D02*
X066615Y021623D01*
X058226Y031366D02*
X057873Y031366D01*
X057858Y031381D01*
X058226Y031366D02*
X058535Y031674D01*
X058459Y031802D02*
X060354Y031802D01*
X060490Y031990D02*
X060512Y032012D01*
X058181Y032012D01*
X058106Y031937D01*
X057547Y032132D02*
X061716Y032132D01*
X057547Y032132D02*
X057364Y031949D01*
X057364Y031694D01*
D32*
X001392Y002150D02*
X000334Y002150D01*
X000364Y033273D01*
X008039Y033273D01*
X008039Y002142D01*
X000805Y002142D01*
X001376Y002693D02*
X002873Y004190D01*
X004392Y004190D01*
X005802Y005600D01*
X005802Y007854D01*
X005629Y008028D01*
X005260Y008028D01*
X005253Y007945D02*
X006091Y008784D01*
X006983Y008784D01*
X007233Y009033D01*
X007233Y011765D01*
X006644Y012353D01*
X006740Y012318D02*
X006771Y012318D01*
X007245Y012792D01*
X007245Y013990D01*
X007252Y014731D01*
X006918Y014731D01*
X006326Y014741D01*
X006106Y014733D02*
X004388Y014733D01*
X003718Y014728D01*
X003726Y016463D01*
X003774Y016572D01*
X003716Y016324D02*
X003704Y017280D01*
X003718Y017303D01*
X003907Y017581D01*
X003913Y018133D01*
X003919Y018156D02*
X003919Y024290D01*
X003916Y024563D01*
X003916Y025691D01*
X003916Y026393D01*
X003916Y027588D01*
X005363Y027551D01*
X005484Y027551D01*
X005511Y027556D02*
X005511Y029612D01*
X006138Y030240D01*
X006138Y031397D01*
X006064Y031470D01*
X005056Y032492D02*
X005056Y032517D01*
X005548Y033009D01*
X006433Y033009D01*
X006642Y032800D01*
X006642Y028418D01*
X007245Y027815D01*
X007245Y026633D01*
X007073Y026461D01*
X006519Y026461D01*
X006483Y026498D01*
X005480Y026484D02*
X005178Y026484D01*
X005279Y026482D02*
X004294Y026482D01*
X004234Y026422D01*
X004234Y024118D01*
X004234Y017829D01*
X004222Y017817D01*
X004232Y017811D02*
X004232Y017317D01*
X004713Y017146D01*
X004694Y017151D02*
X004731Y017114D01*
X004731Y016625D01*
X005703Y016513D02*
X005703Y017108D01*
X004510Y017527D01*
X004510Y017692D01*
X004510Y017767D01*
X004512Y017744D02*
X004514Y017805D01*
X004510Y024063D01*
X004511Y025230D01*
X004517Y025479D01*
X005166Y025479D01*
X005468Y025479D01*
X005529Y024475D02*
X005226Y024449D01*
X004781Y024446D01*
X004790Y017753D01*
X004803Y017750D02*
X006686Y017093D01*
X006686Y016868D01*
X003606Y018439D02*
X003453Y018234D01*
X003233Y017971D01*
X003234Y017957D02*
X003236Y017514D01*
X003232Y014211D01*
X003240Y013478D01*
X003707Y013478D01*
X002922Y013215D02*
X002783Y012464D01*
X002785Y012432D01*
X002820Y012446D02*
X003784Y012446D01*
X003827Y012403D01*
X003827Y012425D02*
X003827Y012145D01*
X004512Y011460D01*
X005946Y011460D01*
X006160Y011760D01*
X006162Y013162D01*
X006685Y013508D01*
X005694Y013600D02*
X005694Y013070D01*
X005693Y012362D01*
X004812Y012353D02*
X004704Y013340D01*
X004704Y013554D01*
X004693Y013473D01*
X005686Y013581D02*
X005683Y013135D01*
X005686Y013581D02*
X005694Y013600D01*
X006106Y014733D02*
X006887Y014735D01*
X002920Y014253D02*
X002184Y014990D01*
X002153Y014915D02*
X002153Y015962D01*
X002079Y016035D01*
X002157Y015964D02*
X002157Y016307D01*
X002683Y016834D01*
X002683Y018362D01*
X002605Y018440D01*
X002531Y018510D02*
X002689Y018510D01*
X002525Y018544D01*
X002534Y018519D02*
X003139Y018519D01*
X003278Y018644D01*
X003281Y019072D01*
X003283Y019062D02*
X003292Y026705D01*
X003292Y026706D02*
X003292Y028192D01*
X003289Y028170D02*
X002858Y028605D01*
X002312Y028603D01*
X001476Y029625D02*
X001476Y027556D01*
X003610Y027556D02*
X003606Y018454D01*
X000639Y014550D02*
X001394Y013831D01*
X001999Y013831D01*
X002131Y013962D01*
X002920Y014253D02*
X002920Y012475D01*
X002782Y012394D02*
X002782Y011419D01*
X002402Y011039D01*
X002402Y010332D01*
X001997Y009967D01*
X001997Y008930D01*
X002330Y008702D01*
X002330Y007390D01*
X003269Y006451D01*
X005096Y006451D01*
X005204Y006559D01*
X005204Y007191D01*
X004229Y007197D02*
X003189Y007197D01*
X002693Y007694D01*
X002693Y009410D01*
X002738Y009455D01*
X002768Y009485D02*
X002738Y009516D01*
X002738Y009832D01*
X003001Y010225D01*
X004567Y010225D01*
X004786Y009771D01*
X004786Y009410D01*
X005599Y009335D02*
X004259Y007995D01*
X004229Y007995D02*
X003927Y007995D01*
X003732Y008191D01*
X003732Y009365D01*
X003792Y009425D01*
X005599Y009335D02*
X005689Y009335D01*
X005704Y009350D01*
X006869Y009329D01*
X005253Y007945D02*
X005253Y007927D01*
X002570Y007161D02*
X002006Y007724D01*
X001311Y007724D01*
X001441Y004753D02*
X001311Y004623D01*
X001311Y003756D01*
X011242Y004003D02*
X011603Y004003D01*
X012199Y003407D01*
X020407Y003407D01*
X020790Y003024D01*
X020790Y002748D01*
X021088Y002450D01*
X020854Y002578D02*
X012624Y002578D01*
X011795Y003407D01*
X011795Y003599D01*
X011773Y003620D01*
X011816Y003620D01*
X011986Y003450D01*
X011986Y003365D01*
X012135Y003216D01*
X012135Y003429D01*
X011901Y003663D01*
X011731Y003663D01*
X011667Y003726D01*
X011667Y003641D01*
X011901Y003407D01*
X013264Y003875D02*
X020812Y003875D01*
X021173Y003514D01*
X021173Y003025D01*
X021322Y002876D01*
X030041Y002876D01*
X030488Y003322D01*
X027426Y003280D02*
X027426Y003939D01*
X027383Y003982D01*
X027383Y003599D02*
X025937Y003599D01*
X025660Y003875D01*
X024342Y003982D02*
X023598Y003982D01*
X022768Y004812D01*
X013346Y005510D02*
X013264Y003875D01*
X013346Y005510D02*
X012260Y005510D01*
X004812Y012288D02*
X004812Y012353D01*
X000639Y014550D02*
X000639Y024008D01*
X001184Y024446D01*
X001578Y024446D01*
X003613Y027409D02*
X003591Y030324D01*
X003600Y030364D02*
X002954Y030364D01*
X002928Y030375D02*
X002879Y030424D01*
X002276Y030424D01*
X001476Y029625D01*
X002190Y030301D02*
X002190Y030844D01*
X003801Y032455D01*
X003986Y032455D01*
X004010Y032480D01*
X004022Y031470D02*
X004133Y031360D01*
X004133Y029698D01*
X004834Y028997D01*
X004834Y028603D01*
X026807Y013893D02*
X027722Y014809D01*
X032446Y014809D01*
X033096Y014159D01*
X040345Y014159D01*
X041025Y013479D01*
X041069Y013449D02*
X041497Y013449D01*
X041512Y013464D01*
X038618Y010746D02*
X037909Y011455D01*
X031162Y011455D01*
X030175Y011457D02*
X030175Y010666D01*
X030668Y010114D01*
X032028Y010114D01*
X032514Y010606D01*
X037882Y010606D01*
X038115Y010373D01*
X038115Y009748D01*
X038990Y009748D02*
X039115Y009873D01*
X039115Y010373D01*
X038618Y010746D02*
X038618Y009150D01*
X038880Y008837D01*
X040115Y009748D02*
X040115Y010373D01*
X045581Y010856D02*
X045581Y009009D01*
X045598Y010807D02*
X045581Y010856D01*
X052968Y010807D02*
X053490Y010284D01*
X047173Y006342D02*
X047142Y006373D01*
X041875Y005698D02*
X041783Y005790D01*
X041079Y005238D02*
X041293Y005024D01*
X029175Y011457D02*
X028925Y011457D01*
X030175Y012457D02*
X030175Y012707D01*
X030550Y013082D01*
X031175Y012457D02*
X031675Y012457D01*
X026807Y013627D02*
X026807Y013893D01*
X056740Y027498D02*
X056740Y027623D01*
X056740Y028748D01*
X056615Y028623D01*
X056615Y027623D01*
X056865Y027873D01*
X056865Y028873D01*
X056865Y027873D02*
X056865Y027373D01*
X068081Y031575D02*
X068786Y031575D01*
X068786Y031277D01*
X068652Y031277D01*
X068783Y031535D02*
X068783Y032166D01*
X068081Y032166D01*
X068081Y031575D01*
X068349Y031078D02*
X068374Y031078D01*
X068374Y031013D01*
X068686Y031604D02*
X068686Y032011D01*
X068676Y032007D02*
X068528Y032007D01*
X068528Y032018D01*
X068686Y031604D02*
X068738Y031604D01*
X066383Y021377D02*
X066297Y021291D01*
X064624Y021291D01*
X068672Y005771D02*
X068786Y005771D01*
D33*
X057370Y021231D03*
X048360Y021205D03*
X039376Y021180D03*
X030366Y021256D03*
D34*
X027252Y023761D02*
X022276Y023761D01*
X021994Y023480D01*
X021019Y023678D02*
X020762Y023935D01*
X020762Y028576D01*
X021056Y028870D01*
X021056Y030711D01*
X021277Y030932D01*
X020248Y030932D02*
X020248Y032147D01*
X020174Y032221D01*
X019439Y032295D02*
X019034Y032700D01*
X010985Y032700D01*
X010030Y031744D01*
X010030Y003166D01*
X010765Y002431D01*
X024364Y002431D01*
X025678Y003266D02*
X025650Y004343D01*
X025650Y005668D01*
X025618Y005590D02*
X025618Y005974D01*
X025720Y006076D01*
X028323Y006076D01*
X028374Y006025D01*
X029141Y005411D02*
X029779Y004773D01*
X029819Y004730D02*
X039102Y004730D01*
X039563Y005191D01*
X039563Y007141D01*
X039368Y007336D01*
X038359Y007336D01*
X037402Y008293D01*
X036977Y008293D01*
X036445Y008825D01*
X036445Y009392D01*
X036108Y009729D01*
X035124Y009813D02*
X035124Y009280D01*
X035379Y009025D01*
X035379Y008238D01*
X034146Y009004D02*
X034146Y009749D01*
X034167Y009770D01*
X033189Y009770D02*
X032827Y009408D01*
X031955Y009408D01*
X031658Y009110D01*
X031658Y008238D01*
X030382Y008238D02*
X029467Y009153D01*
X028192Y009153D01*
X026851Y010493D01*
X026851Y012282D01*
X025746Y013388D01*
X025767Y011962D02*
X025767Y010152D01*
X027319Y008599D01*
X028978Y008599D01*
X029744Y007833D01*
X029744Y006450D01*
X030020Y006173D01*
X035358Y006173D01*
X035443Y006259D01*
X035465Y007238D02*
X030573Y007238D01*
X030382Y007429D01*
X030382Y008238D01*
X029141Y007455D02*
X028681Y007915D01*
X026997Y007915D01*
X026333Y008579D01*
X025159Y008579D01*
X024674Y009064D01*
X024674Y016498D01*
X023806Y017367D01*
X021714Y017367D01*
X021407Y017060D01*
X019314Y017060D01*
X018447Y016193D01*
X018447Y014812D01*
X017987Y014353D01*
X016583Y014353D01*
X015818Y013587D01*
X015818Y012544D01*
X015804Y012458D02*
X015502Y012156D01*
X011453Y012156D01*
X011658Y013283D02*
X010102Y013283D01*
X010511Y013309D02*
X011659Y013309D01*
X011863Y013513D01*
X011863Y015558D01*
X011991Y015685D01*
X016048Y015685D01*
X018267Y013765D02*
X019059Y014557D01*
X019059Y015835D01*
X019621Y016396D01*
X021637Y016396D01*
X021969Y016728D01*
X023525Y016728D01*
X024036Y016217D01*
X024036Y008783D01*
X024879Y007941D01*
X026052Y007941D01*
X026818Y007174D01*
X028197Y007174D01*
X028299Y007072D01*
X029141Y007455D02*
X029141Y005411D01*
X028783Y004901D02*
X029473Y004211D01*
X039503Y004211D01*
X040167Y004875D01*
X040167Y007328D01*
X039529Y007966D01*
X038586Y007966D01*
X037615Y008937D01*
X037207Y008937D01*
X037104Y009039D01*
X037104Y009729D01*
X038175Y009697D02*
X038175Y010391D01*
X037880Y010687D01*
X032698Y010687D01*
X032019Y010007D01*
X030690Y010007D01*
X030144Y010554D01*
X030144Y011499D01*
X030217Y012474D02*
X030262Y012519D01*
X030262Y012932D01*
X030631Y013302D01*
X031782Y013302D01*
X032418Y012666D01*
X038987Y012666D01*
X040110Y011544D01*
X040110Y009697D01*
X039091Y009771D02*
X039091Y011618D01*
X038648Y012061D01*
X032122Y012061D01*
X031753Y012430D01*
X031192Y012430D01*
X031177Y012445D01*
X032033Y013804D02*
X032594Y013243D01*
X039296Y013243D01*
X041114Y011425D01*
X041114Y009741D01*
X041099Y009726D01*
X042104Y009949D02*
X042104Y009157D01*
X042105Y009136D02*
X041814Y008837D01*
X038880Y008837D01*
X041079Y006863D02*
X042059Y007843D01*
X042059Y009009D01*
X042824Y008365D02*
X043100Y008641D01*
X043100Y009776D01*
X043136Y009778D02*
X043013Y009900D01*
X043013Y011035D01*
X042132Y012066D01*
X042132Y015165D01*
X042142Y014944D02*
X042142Y015753D01*
X043078Y015668D02*
X043163Y015753D01*
X043078Y015668D02*
X043155Y015553D01*
X043165Y014084D01*
X053683Y014084D01*
X053699Y015059D01*
X053775Y015115D01*
X060842Y014920D02*
X061760Y015839D01*
X063215Y015251D02*
X063700Y015736D01*
X063215Y015251D02*
X063215Y014586D01*
X063266Y014612D02*
X062092Y013438D01*
X062092Y011980D01*
X061967Y011988D02*
X061963Y009236D01*
X060842Y010140D02*
X060842Y014920D01*
X063341Y012021D02*
X064107Y012755D01*
X065504Y014152D01*
X065504Y014595D01*
X066568Y014618D02*
X066568Y009345D01*
X066415Y009192D01*
X066455Y009181D02*
X064630Y009181D01*
X064865Y009167D02*
X054576Y009167D01*
X053619Y010125D01*
X053735Y010015D02*
X053788Y010068D01*
X053796Y009963D02*
X053043Y010716D01*
X052968Y010807D02*
X045598Y010807D01*
X045091Y009745D02*
X045091Y008549D01*
X045672Y007967D01*
X045611Y007967D02*
X045060Y007416D01*
X045060Y006403D01*
X043896Y006311D02*
X043651Y006556D01*
X043651Y007967D01*
X044111Y008426D01*
X044111Y009684D01*
X045581Y009009D02*
X046316Y008274D01*
X046316Y007783D01*
X046561Y007538D01*
X047326Y007538D01*
X047361Y007506D02*
X047616Y007251D01*
X048637Y007251D01*
X049020Y006868D01*
X049020Y005769D01*
X048279Y005029D01*
X047948Y005029D01*
X047908Y005024D02*
X041293Y005024D01*
X041261Y005028D02*
X041099Y005191D01*
X041099Y005280D01*
X041079Y005238D02*
X041079Y006863D01*
X041783Y006311D02*
X041783Y005790D01*
X041875Y005698D02*
X046836Y005698D01*
X047173Y006035D01*
X047173Y006342D01*
X047157Y006382D02*
X048101Y006382D01*
X048203Y006280D01*
X048561Y005300D02*
X052942Y005300D01*
X053156Y005514D01*
X053156Y006189D01*
X053095Y006250D01*
X054056Y006273D02*
X054091Y006237D01*
X054056Y006273D02*
X054056Y006911D01*
X053613Y007355D01*
X049538Y007355D01*
X049006Y007887D01*
X047855Y007887D01*
X047554Y008188D01*
X046916Y008188D01*
X046827Y008277D01*
X046827Y008738D01*
X046136Y009429D01*
X046136Y009713D01*
X047111Y009695D02*
X047111Y009499D01*
X048050Y008560D01*
X049236Y008560D01*
X049715Y008082D01*
X054020Y008082D01*
X055066Y007035D01*
X055066Y006273D01*
X055101Y006237D01*
X056145Y004824D02*
X057090Y005769D01*
X057090Y007865D01*
X057013Y007815D02*
X057217Y008019D01*
X057574Y008019D01*
X057855Y007738D01*
X057855Y007712D01*
X058008Y007559D01*
X058672Y007559D01*
X059055Y007942D01*
X060280Y007942D01*
X060663Y008325D01*
X060944Y008325D01*
X060969Y008300D01*
X060969Y007405D01*
X060842Y007278D01*
X060816Y007250D02*
X060816Y007250D01*
X060867Y007199D01*
X060867Y007046D01*
X061225Y006688D01*
X061250Y006688D01*
X061097Y006841D01*
X060791Y006841D01*
X060561Y006612D01*
X060510Y006612D01*
X060357Y006765D01*
X060357Y007148D01*
X060663Y007454D01*
X060663Y007556D01*
X060688Y007533D02*
X060612Y007457D01*
X060688Y007533D02*
X060688Y008095D01*
X060739Y007993D02*
X060739Y007942D01*
X060765Y007917D01*
X060631Y007752D02*
X062195Y006188D01*
X062195Y006065D01*
X062869Y005391D01*
X063236Y005391D01*
X063512Y005667D01*
X063517Y005687D02*
X068336Y005687D01*
X068531Y005882D01*
X068720Y005729D02*
X068720Y004840D01*
X067502Y003548D01*
X067005Y003767D02*
X066913Y003675D01*
X054965Y003675D01*
X054996Y003573D02*
X055558Y003011D01*
X056222Y003011D01*
X056324Y003113D01*
X056159Y002939D02*
X066361Y002939D01*
X066606Y002694D01*
X066576Y002663D02*
X066637Y002602D01*
X066576Y002663D02*
X056159Y002663D01*
X056247Y002679D02*
X056273Y002653D01*
X056247Y002679D02*
X031617Y002679D01*
X031642Y002857D02*
X056324Y002857D01*
X055558Y003011D02*
X031821Y003011D01*
X031642Y002883D02*
X031642Y003139D01*
X031745Y003241D01*
X054638Y003241D01*
X056247Y004850D01*
X056313Y004870D02*
X067893Y004870D01*
X067924Y004840D01*
X068016Y004840D02*
X068016Y004778D01*
X067862Y004625D01*
X067954Y004748D02*
X068016Y004686D01*
X068016Y004779D01*
X068322Y005085D01*
X068291Y005085D01*
X068230Y005146D01*
X068230Y005054D01*
X068016Y004840D01*
X067954Y004748D02*
X067954Y005177D01*
X068230Y005453D01*
X068322Y005453D01*
X068444Y005330D01*
X068444Y005330D01*
X068383Y005269D01*
X068383Y004962D01*
X067770Y004349D01*
X056037Y004349D01*
X055976Y004288D01*
X056251Y004502D02*
X056313Y004564D01*
X068199Y004564D01*
X068322Y004349D02*
X067770Y004349D01*
X067954Y004135D02*
X067985Y004165D01*
X067954Y004135D02*
X055485Y004135D01*
X055583Y004313D02*
X056247Y004978D01*
X056374Y004962D02*
X058242Y004962D01*
X059805Y006526D01*
X062041Y006526D01*
X062746Y005821D01*
X063757Y005821D01*
X064094Y005483D01*
X063447Y006751D02*
X061957Y007502D01*
X061957Y007982D01*
X060631Y007752D02*
X060602Y007752D01*
X060586Y007763D02*
X059209Y007763D01*
X058774Y007329D01*
X058213Y007329D01*
X058187Y007303D01*
X060586Y007303D01*
X060816Y007250D02*
X060842Y007224D01*
X060842Y007148D01*
X060535Y006841D01*
X060688Y006688D01*
X060944Y006688D01*
X060995Y006739D01*
X061250Y006739D01*
X061327Y006663D01*
X061378Y006663D01*
X061429Y006612D01*
X061735Y006188D02*
X061827Y006096D01*
X061735Y006188D02*
X059713Y006188D01*
X059872Y006356D02*
X062041Y006356D01*
X062067Y006331D01*
X062195Y005974D02*
X059407Y005974D01*
X059284Y005698D02*
X062348Y005698D01*
X062379Y005729D01*
X060127Y006152D02*
X060127Y006689D01*
X057575Y006689D01*
X057498Y006766D01*
X057498Y007609D01*
X057549Y007660D01*
X057677Y007533D02*
X057421Y007789D01*
X057421Y005744D01*
X057294Y005617D01*
X057243Y005642D02*
X056783Y005182D01*
X056783Y004518D01*
X057039Y005003D02*
X057524Y005488D01*
X057524Y006817D01*
X057753Y006766D02*
X057830Y006842D01*
X057830Y007532D01*
X057830Y007533D02*
X057677Y007533D01*
X057855Y007583D02*
X057855Y007149D01*
X058187Y006817D01*
X058544Y006817D01*
X058289Y007098D02*
X060152Y007098D01*
X060306Y007251D01*
X060127Y007250D02*
X060535Y007659D01*
X060229Y007687D02*
X059999Y007457D01*
X059208Y007457D01*
X060127Y007250D02*
X060127Y006689D01*
X060050Y006740D02*
X060025Y006766D01*
X057753Y006766D01*
X057779Y006536D02*
X057779Y005335D01*
X057549Y005105D01*
X057830Y005207D02*
X057830Y006255D01*
X058060Y006485D01*
X059412Y006485D01*
X059489Y006408D01*
X059413Y006408D01*
X058034Y005029D01*
X058034Y006459D01*
X058111Y006536D01*
X058953Y006536D01*
X059157Y006331D01*
X059081Y006331D01*
X058238Y005488D01*
X058238Y006229D01*
X058213Y006255D01*
X058774Y006255D01*
X058851Y006331D01*
X058672Y006331D01*
X058468Y006127D01*
X058468Y006025D01*
X058519Y005974D01*
X058794Y005545D02*
X068046Y005545D01*
X068536Y005330D02*
X068567Y005299D01*
X068536Y005330D02*
X058855Y005330D01*
X058610Y005054D02*
X068138Y005054D01*
X068444Y003920D02*
X068567Y003797D01*
X068444Y003920D02*
X055516Y003920D01*
X055482Y003828D02*
X055252Y004058D01*
X040933Y004058D01*
X040805Y004288D02*
X040090Y003573D01*
X031693Y003573D01*
X031413Y003292D01*
X031413Y002934D01*
X031132Y002653D01*
X031132Y002449D01*
X031362Y002474D02*
X031362Y002602D01*
X031642Y002883D01*
X028783Y004901D02*
X027201Y004901D01*
X024262Y004924D02*
X023997Y005189D01*
X023997Y007000D01*
X022762Y008235D01*
X022762Y015081D01*
X022301Y016090D02*
X021586Y015375D01*
X021586Y015170D01*
X021703Y015441D02*
X021703Y015663D01*
X022301Y016090D02*
X023245Y016090D01*
X023373Y015962D01*
X023373Y015834D01*
X023500Y015707D01*
X023500Y008476D01*
X024623Y007353D01*
X025389Y007353D01*
X025670Y007072D01*
X021438Y006239D02*
X020110Y007567D01*
X017294Y007567D01*
X015202Y005475D01*
X015573Y005475D01*
X017009Y006911D01*
X017009Y004641D01*
X017080Y004570D01*
X019844Y004570D01*
X019862Y004588D01*
X017488Y004588D01*
X017328Y004748D01*
X019720Y004748D01*
X019808Y004836D01*
X016991Y004836D01*
X016938Y004890D01*
X019472Y004890D01*
X019596Y005014D01*
X016921Y005014D01*
X016867Y005067D01*
X019294Y005067D01*
X019702Y005475D01*
X018391Y005475D01*
X018356Y005439D01*
X018320Y005439D01*
X018338Y005422D01*
X019206Y005422D01*
X019330Y005297D01*
X017133Y005297D01*
X017115Y005280D01*
X017718Y005439D02*
X018320Y005439D01*
X020448Y004932D02*
X020448Y004827D01*
X020848Y004426D01*
X021827Y004426D01*
X021876Y004377D01*
X021970Y004423D02*
X021392Y004508D01*
X020973Y004512D01*
X021056Y004674D02*
X021680Y004674D01*
X021613Y003310D01*
X025678Y003266D01*
X021410Y004318D02*
X021222Y004819D01*
X021415Y004987D01*
X021355Y004901D02*
X021410Y004318D01*
X021279Y004464D02*
X021438Y004624D01*
X021438Y006239D01*
X021355Y005175D02*
X021355Y004901D01*
X021403Y004588D02*
X021243Y004428D01*
X014759Y004428D01*
X014511Y004677D01*
X014511Y005599D01*
X014706Y005794D01*
X014706Y005794D01*
X015557Y006645D01*
X016761Y006645D01*
X015999Y006397D02*
X015981Y006379D01*
X015733Y006379D01*
X014989Y005635D01*
X014989Y005617D01*
X014600Y006679D02*
X013891Y005970D01*
X013891Y004782D01*
X013566Y004457D01*
X012550Y004457D01*
X012499Y004457D02*
X012336Y004619D01*
X012336Y006866D01*
X012388Y006918D01*
X012977Y006918D01*
X013788Y007729D01*
X013788Y008917D01*
X013848Y008977D01*
X014284Y008977D01*
X014446Y008814D01*
X014446Y008464D01*
X014378Y008396D01*
X014378Y007558D01*
X014600Y007336D01*
X014600Y006679D01*
X012695Y006772D02*
X012482Y006559D01*
X012473Y006559D01*
X014889Y007674D02*
X014889Y008080D01*
X014931Y008122D01*
X014931Y008343D01*
X014883Y008099D02*
X014883Y008897D01*
X015113Y009127D01*
X015113Y009164D01*
X017222Y011272D01*
X018639Y011272D01*
X018745Y011379D01*
X017399Y011024D02*
X017399Y010615D01*
X015574Y008790D01*
X015574Y008809D01*
X017417Y010652D01*
X017399Y011024D02*
X015058Y008684D01*
X015025Y008684D01*
X014108Y008401D02*
X014108Y009271D01*
X016532Y011696D01*
X016532Y012386D01*
X016405Y012513D01*
X016405Y013229D01*
X016941Y013765D01*
X018267Y013765D01*
X011940Y013564D02*
X011940Y015481D01*
X012093Y015634D01*
X011940Y013564D02*
X011658Y013283D01*
X018931Y009746D02*
X018960Y009774D01*
X018931Y009746D02*
X018931Y008557D01*
X018540Y008165D01*
X017195Y008165D01*
X016525Y007496D01*
X015067Y007496D01*
X014889Y007674D01*
X013112Y008247D02*
X013112Y009271D01*
X012237Y008394D02*
X011537Y009093D01*
X012237Y008394D02*
X013117Y008394D01*
X017344Y008478D02*
X017586Y008236D01*
X017586Y008229D01*
X014830Y004464D02*
X021279Y004464D01*
X008997Y002584D02*
X008864Y002451D01*
X070459Y002451D01*
X070900Y002893D01*
X070900Y032567D01*
X070636Y032832D01*
X009041Y032832D01*
X008997Y032788D01*
X008997Y002584D01*
X008908Y002407D02*
X008953Y002363D01*
X070724Y002363D01*
X071077Y002716D01*
X071077Y032435D01*
X070680Y032832D01*
X070636Y032832D01*
X070680Y032744D02*
X070856Y032744D01*
X071077Y032964D01*
X071160Y033005D02*
X071160Y032431D01*
X071075Y032346D01*
X070735Y032197D02*
X070097Y032834D01*
X070097Y032878D01*
X069906Y032665D02*
X069906Y032643D01*
X070863Y031686D01*
X070756Y031452D02*
X069672Y032536D01*
X069672Y032920D01*
X069204Y032941D02*
X069204Y032898D01*
X070246Y031856D01*
X070310Y031388D02*
X068991Y032707D01*
X068970Y032707D01*
X068629Y032707D02*
X070289Y031048D01*
X068376Y030236D02*
X065799Y030236D01*
X065774Y030261D01*
X065774Y031283D01*
X065467Y031589D01*
X066716Y031589D01*
X067891Y030415D01*
X066054Y030415D01*
X066029Y030440D01*
X066029Y030619D01*
X066029Y030900D01*
X066309Y031181D01*
X066513Y031181D01*
X066922Y030772D01*
X066284Y030772D01*
X066284Y030925D01*
X066539Y030925D01*
X066565Y030951D01*
X066411Y030951D01*
X066029Y030900D02*
X066029Y031283D01*
X065901Y031411D01*
X066538Y031411D01*
X067406Y030542D01*
X066105Y030542D01*
X066029Y030619D01*
X065518Y030134D02*
X065518Y031258D01*
X065085Y031692D01*
X064319Y031692D01*
X064268Y031743D01*
X066869Y031743D01*
X068376Y030236D01*
X068401Y029955D02*
X065697Y029955D01*
X065518Y030134D01*
X065314Y029955D02*
X065467Y029802D01*
X068146Y029802D01*
X068555Y029393D01*
X065314Y029955D02*
X065314Y031079D01*
X064829Y031564D01*
X064115Y031564D01*
X063911Y031768D01*
X058630Y031768D01*
X058119Y031257D01*
X057405Y031257D01*
X068545Y032707D02*
X068629Y032707D01*
X070522Y032707D02*
X070522Y032537D01*
X070693Y032367D01*
X071297Y032788D02*
X070989Y033097D01*
X009085Y033097D01*
X008908Y032920D01*
X008908Y002407D01*
X028893Y012709D02*
X029148Y012454D01*
X029169Y012489D02*
X029169Y012770D01*
X029789Y013390D01*
X029937Y013390D01*
X030262Y013715D01*
X030262Y013715D01*
X030350Y013804D01*
X032033Y013804D01*
X028893Y013667D02*
X028893Y012709D01*
X025517Y014970D02*
X025491Y014944D01*
X025517Y014970D02*
X026563Y014970D01*
X026411Y016120D02*
X025542Y016989D01*
X025542Y017909D01*
X025517Y017934D01*
X025576Y018006D02*
X023964Y018006D01*
X021754Y020215D01*
X021389Y020215D01*
X020358Y021246D01*
X020358Y023420D01*
X020027Y023751D01*
X020027Y027363D01*
X018594Y028796D01*
X018594Y030785D01*
X018483Y030895D01*
X019917Y030601D02*
X020248Y030932D01*
X019917Y030601D02*
X019917Y028796D01*
X017565Y028870D02*
X017565Y032111D01*
X017638Y032184D01*
X016916Y031938D02*
X016686Y031709D01*
X017758Y026009D02*
X018855Y026009D01*
X018957Y026112D01*
X019136Y023505D02*
X017960Y022330D01*
X017783Y022330D01*
X021019Y021651D02*
X021019Y023678D01*
X021019Y021651D02*
X021719Y020952D01*
X022048Y020952D01*
X023963Y019037D01*
X026495Y019037D01*
X026569Y018963D01*
X026569Y018042D01*
X026589Y017960D02*
X026487Y017858D01*
X026487Y017091D01*
X026895Y016682D01*
X033991Y016682D01*
X034169Y016503D01*
X034169Y015711D01*
X033199Y015736D02*
X032868Y015736D01*
X032485Y016120D01*
X026411Y016120D01*
X035103Y009834D02*
X035124Y009813D01*
X034146Y009004D02*
X033402Y008259D01*
X033402Y008216D01*
X040856Y004313D02*
X055583Y004313D01*
X055150Y003930D02*
X055073Y003854D01*
X040703Y003854D01*
X040601Y003700D02*
X055073Y003700D01*
X055277Y003496D01*
X055118Y003460D02*
X068169Y003460D01*
X068199Y003430D01*
X066484Y002847D02*
X066453Y002817D01*
X055455Y002817D01*
X055022Y003266D02*
X054869Y003419D01*
X039836Y003419D01*
X040448Y003573D02*
X054996Y003573D01*
X054015Y003276D02*
X066147Y003276D01*
X066331Y003092D01*
X066621Y002319D02*
X071077Y002319D01*
X071297Y002540D01*
X071297Y032788D01*
X067640Y015445D02*
X067396Y015445D01*
X066568Y014618D01*
X063492Y011986D02*
X063341Y012021D01*
X058340Y010089D02*
X058264Y010012D01*
X055839Y010012D01*
X057013Y007815D02*
X057013Y005642D01*
X058289Y007098D02*
X058136Y007251D01*
X060535Y006841D02*
X060535Y006841D01*
X063375Y008009D02*
X064597Y008009D01*
X066423Y006822D01*
X052115Y006281D02*
X049878Y006281D01*
X042824Y007353D02*
X041783Y006311D01*
X042824Y007353D02*
X042824Y008365D01*
D35*
X018741Y010672D02*
X016238Y008170D01*
X015546Y008149D01*
X013794Y006705D02*
X013113Y006024D01*
X013113Y005088D01*
X015155Y005131D02*
X016515Y005131D01*
X017877Y006492D01*
X021939Y025018D02*
X021939Y027412D01*
X067630Y025498D02*
X068906Y025498D01*
X068931Y025473D01*
X069059Y022125D02*
X067655Y022125D01*
X067655Y018777D02*
X068548Y018777D01*
X069219Y030948D02*
X068083Y032084D01*
X069219Y030948D02*
X069219Y004393D01*
X068895Y004068D01*
X068895Y004039D01*
X067876Y003020D01*
X067108Y003020D01*
D36*
X014176Y007003D02*
X013687Y006471D01*
X014176Y007003D02*
X014176Y008471D01*
D37*
X011302Y007862D02*
X011302Y004084D01*
X010792Y003931D02*
X010588Y003727D01*
X010792Y003931D02*
X010792Y007862D01*
X011022Y007633D01*
X011022Y003573D01*
X011354Y003241D01*
X011022Y002807D02*
X010307Y003522D01*
X010307Y014194D01*
X010766Y013641D02*
X011046Y013922D01*
X011226Y014015D02*
X011226Y013427D01*
X010690Y012892D01*
X010690Y008475D01*
X011302Y007862D01*
X011378Y013564D02*
X010766Y013564D01*
X010766Y013641D01*
X011378Y013564D02*
X011684Y013870D01*
X011684Y015864D01*
X016303Y015864D01*
X015028Y016595D02*
X012052Y016595D01*
X011610Y017036D01*
X015175Y017036D01*
X015249Y016963D01*
X012382Y016963D01*
X011831Y017514D01*
X014734Y017514D01*
X014771Y017551D01*
X015028Y016595D02*
X014918Y016484D01*
X011353Y016484D01*
X011046Y031326D02*
X011557Y031836D01*
X015818Y031836D01*
X015946Y031708D01*
X016380Y031836D02*
X016584Y032040D01*
X016584Y032245D01*
X016507Y032322D01*
X011072Y032322D01*
X010383Y031633D01*
X011429Y032066D02*
X011455Y032092D01*
X015078Y031887D02*
X015180Y031785D01*
D38*
X011901Y003131D02*
X020216Y003131D01*
X020471Y002875D01*
X020471Y002684D01*
X020493Y002663D01*
X012241Y002663D01*
X011773Y003131D01*
D39*
X009166Y005146D02*
X009166Y032378D01*
X009381Y032593D01*
X009902Y032593D01*
X009411Y032102D01*
X009411Y031059D01*
X009687Y030783D01*
X009687Y005606D01*
X010739Y013920D02*
X010739Y014080D01*
X011374Y014716D01*
X011374Y015618D01*
X010950Y016041D01*
X010950Y015404D01*
X010739Y015193D01*
X010739Y015087D01*
X010686Y015034D01*
X010792Y015140D01*
X010792Y016625D01*
X010157Y017261D01*
X010157Y015882D01*
X010051Y015776D01*
X010157Y015670D02*
X010157Y015457D01*
X010686Y014928D01*
X010686Y014821D01*
X010368Y014503D01*
X010210Y014503D01*
X010210Y014450D01*
X010739Y013920D01*
X010686Y015034D02*
X010686Y015034D01*
X010157Y015670D02*
X010157Y016677D01*
X010157Y017155D02*
X010897Y017155D01*
X010950Y017101D01*
X011321Y017101D01*
X011533Y017314D01*
X011533Y017153D01*
X010792Y016412D01*
X010792Y016305D01*
X010157Y015670D01*
X010157Y017155D02*
X010792Y017790D01*
X010792Y017791D01*
X010580Y018003D01*
X009945Y018003D01*
X010422Y018480D01*
X011374Y018480D01*
X011638Y018692D02*
X011638Y017949D01*
X012062Y017526D01*
X011989Y017548D02*
X011861Y017420D01*
X012346Y017599D02*
X012346Y031600D01*
X012142Y031804D01*
X012062Y031364D02*
X011585Y030887D01*
X009522Y030887D01*
X010157Y031205D02*
X010157Y031683D01*
X009892Y031947D01*
X009732Y032159D02*
X009098Y032159D01*
X009732Y032159D02*
X010527Y031364D01*
X010527Y030781D01*
X010368Y030622D01*
X011638Y030622D01*
X011691Y030569D01*
X011743Y030145D02*
X012274Y030675D01*
X012678Y030552D02*
X012678Y028838D01*
X014899Y026618D01*
X014899Y017624D01*
X015511Y017011D01*
X015484Y017029D02*
X015484Y017207D01*
X016102Y017825D01*
X016322Y017735D02*
X015617Y017029D01*
X015256Y017011D02*
X015256Y020537D01*
X015741Y021022D01*
X015705Y021181D02*
X016543Y020343D01*
X016543Y016852D01*
X016102Y016411D01*
X015264Y016411D01*
X015176Y016499D01*
X015176Y017118D01*
X014823Y017471D01*
X015085Y017471D01*
X016587Y018973D01*
X016807Y018708D02*
X016807Y018311D01*
X016852Y018267D01*
X016852Y018090D01*
X018350Y018090D01*
X019145Y018885D01*
X019145Y019371D01*
X019410Y019636D01*
X018308Y019636D01*
X017954Y019283D01*
X018439Y019283D01*
X018528Y019371D01*
X018528Y019902D01*
X018748Y020122D01*
X018748Y019503D01*
X018924Y019327D01*
X018924Y019238D01*
X018572Y018885D01*
X018396Y018885D01*
X017910Y018399D01*
X017910Y018309D01*
X017160Y017560D01*
X017160Y017427D01*
X016940Y017206D01*
X016940Y019372D01*
X017293Y019724D01*
X019232Y019724D01*
X019983Y018973D01*
X019807Y018973D01*
X019630Y018797D01*
X019586Y018841D01*
X019630Y018797D02*
X019630Y018797D01*
X020379Y018443D02*
X020600Y018664D01*
X020600Y018976D01*
X018836Y020741D01*
X018705Y020741D01*
X018086Y020122D01*
X016852Y020122D01*
X016675Y019945D01*
X016675Y019547D01*
X016852Y019371D01*
X017513Y019371D01*
X017778Y019636D01*
X017778Y019458D01*
X016719Y018399D01*
X016719Y018045D01*
X016499Y017825D01*
X016938Y017825D01*
X017778Y018664D01*
X017778Y019460D01*
X018351Y020034D01*
X018133Y020034D01*
X016807Y018708D01*
X016322Y018399D02*
X016322Y017735D01*
X016190Y017029D02*
X016190Y016985D01*
X015793Y016588D01*
X016587Y017029D02*
X016587Y015881D01*
X018752Y018046D01*
X020733Y018046D01*
X021041Y018354D01*
X021041Y019062D01*
X018748Y021355D01*
X018748Y021447D01*
X017776Y020475D01*
X016190Y020475D01*
X015869Y020359D02*
X015256Y020971D01*
X015256Y026748D01*
X013112Y028892D01*
X013112Y030451D01*
X014005Y031344D01*
X016046Y031344D01*
X016992Y032290D01*
X014646Y031697D02*
X014646Y031297D01*
X013544Y030195D01*
X013544Y029264D01*
X015396Y027412D01*
X015396Y026395D01*
X015705Y026086D01*
X015705Y021181D01*
X015869Y020359D02*
X015869Y018493D01*
X014973Y019222D02*
X014867Y019116D01*
X009045Y019116D01*
X009839Y019540D02*
X012962Y019540D01*
X012219Y019564D02*
X012219Y029706D01*
X012015Y029910D01*
X012015Y020228D01*
X011556Y019768D01*
X010739Y019768D01*
X010177Y020330D01*
X010177Y029221D01*
X010637Y029680D01*
X011530Y029680D01*
X011964Y029246D01*
X012270Y029808D02*
X010228Y029808D01*
X009786Y030145D02*
X011743Y030145D01*
X012678Y030552D02*
X013828Y031702D01*
X014133Y031702D01*
X012908Y031830D02*
X012908Y031216D01*
X012627Y031063D02*
X012780Y030910D01*
X012627Y031063D02*
X012627Y031906D01*
X012321Y032315D02*
X011555Y031549D01*
X012221Y031099D02*
X010529Y031099D01*
X009574Y030145D01*
X012755Y028968D02*
X012908Y028815D01*
X012908Y017446D01*
X013393Y017548D02*
X013393Y028585D01*
X013495Y028687D01*
X013699Y028432D02*
X013980Y028151D01*
X013980Y017318D01*
X014388Y017216D02*
X014388Y027359D01*
X014541Y027512D01*
X015573Y029135D02*
X016543Y028164D01*
X016543Y027588D01*
X017998Y026133D01*
X017998Y025998D01*
X018792Y025998D01*
X018969Y026175D01*
X017998Y025998D02*
X017734Y025998D01*
X015528Y029135D02*
X015528Y029798D01*
X015087Y030239D01*
X010514Y032593D02*
X009902Y032593D01*
X018748Y020166D02*
X018748Y020122D01*
X018439Y018443D02*
X020379Y018443D01*
X018439Y018443D02*
X017026Y017029D01*
X016587Y017029D01*
X066624Y002754D02*
X070145Y002754D01*
X070789Y003398D01*
X070361Y003337D02*
X069993Y003705D01*
X069901Y003705D01*
X069564Y003766D02*
X070116Y003214D01*
X070208Y003214D01*
X070177Y003920D02*
X070085Y004012D01*
X070085Y029251D01*
X069687Y029649D01*
X069963Y031183D02*
X069534Y031611D01*
X069963Y031183D02*
X069963Y027839D01*
X070437Y031665D02*
X070437Y003966D01*
X070391Y003920D01*
X070177Y003920D01*
D40*
X011966Y018010D02*
X011966Y018861D01*
X011988Y018882D01*
X011116Y018031D02*
X010861Y018286D01*
X011116Y018031D02*
X011116Y017286D01*
X010967Y017435D01*
X010967Y017797D01*
X010946Y017520D02*
X011073Y017392D01*
X011073Y017328D01*
X011116Y017286D02*
X011116Y017179D01*
X011626Y017584D02*
X011626Y017669D01*
X011966Y018010D01*
M02*
