%
M48
M72
T01C0.0276
T02C0.0320
T03C0.0354
T04C0.0360
T05C0.0394
T06C0.0400
T07C0.0440
T08C0.0470
T09C0.0512
T10C0.0630
T11C0.0709
T12C0.0900
T13C0.1181
T14C0.1260
T15C0.1300
%
T01
X43637Y8015
X45637Y8015
T02
X1376Y2720
X1376Y3720
X1303Y4736
X1303Y7736
X1281Y8391
X4807Y9342
X5670Y9355
X6681Y9329
X11506Y9180
X11506Y12180
X6692Y13520
X5692Y13520
X4692Y13520
X3692Y13520
X4807Y12342
X5670Y12355
X6681Y12329
X1440Y12029
X1281Y11391
X1440Y13029
X3692Y16520
X4692Y16520
X5692Y16520
X6692Y16520
X5487Y18535
X5487Y19535
X5487Y20535
X5487Y21535
X5487Y22535
X5487Y23535
X5487Y24535
X5487Y25535
X5487Y26535
X5487Y27535
X2487Y27535
X2487Y26535
X2487Y25535
X2487Y24535
X2487Y23535
X2487Y22535
X2487Y21535
X2487Y20535
X2487Y19535
X2487Y18535
X1455Y28582
X1455Y31582
X17579Y28906
X18579Y28906
X20005Y28943
X21005Y28943
X26365Y25748
X27365Y25748
X29365Y25748
X30365Y25248
X30365Y24498
X26365Y23748
X30365Y20498
X29615Y19748
X27615Y19748
X26569Y17951
X25540Y17951
X25540Y14951
X26569Y14951
X26851Y13667
X28851Y13667
X33115Y15748
X34115Y15748
X35115Y15748
X36115Y15748
X37115Y15748
X38115Y15748
X39115Y15748
X40115Y15748
X41115Y15748
X42115Y15748
X43115Y15748
X44115Y15748
X45115Y15748
X46115Y15748
X47115Y15748
X48115Y15748
X49115Y15748
X50115Y15748
X51115Y15748
X52115Y15748
X44129Y18255
X42129Y18255
X42066Y17190
X40066Y17190
X41008Y14693
X43008Y14693
X43481Y13482
X41481Y13482
X41115Y9748
X42115Y9748
X43115Y9748
X44115Y9748
X45115Y9748
X46115Y9748
X47115Y9748
X48115Y9748
X49115Y9748
X50115Y9748
X51115Y9748
X52115Y9748
X55978Y10067
X55978Y8067
X61960Y7989
X63411Y8008
X65735Y8388
X67735Y8388
X66430Y6811
X66430Y5811
X63482Y5738
X63482Y6738
X63411Y12008
X61960Y11989
X47093Y6367
X45093Y6367
X43816Y6336
X41816Y6336
X40115Y9748
X39115Y9748
X38115Y9748
X37115Y9748
X36115Y9748
X35115Y9748
X34115Y9748
X33115Y9748
X28319Y7059
X28319Y6059
X27263Y4926
X27373Y4003
X27414Y3365
X30414Y3365
X25716Y6059
X25716Y7059
X24263Y4926
X24373Y4003
X36615Y19748
X38615Y19748
X39365Y20498
X35365Y23748
X39365Y24498
X39365Y25248
X38365Y25748
X36365Y25748
X35365Y25748
X39365Y27248
X44365Y25748
X45365Y25748
X47365Y25748
X48365Y25248
X48365Y24498
X44365Y23748
X48365Y20498
X47615Y19748
X45615Y19748
X53365Y23748
X53365Y25748
X54365Y25748
X56365Y25748
X57365Y25248
X57365Y24498
X57365Y27248
X48365Y27248
X57365Y20498
X56615Y19748
X54615Y19748
X30365Y27248
T03
X53710Y15025
X53710Y10025
T04
X5192Y7997
X4208Y7997
X4208Y7217
X5192Y7217
T05
X20248Y13514
X25685Y13390
X25714Y12031
X48126Y6331
X49887Y6306
X58262Y8369
X60821Y8369
X60821Y10141
X58262Y10141
X21918Y23480
X19110Y23556
X18967Y26095
X21969Y26064
X4852Y28637
X2293Y28637
X2293Y30409
X4852Y30409
T06
X5034Y31482
X4034Y31482
X4034Y32482
X5034Y32482
X6034Y32482
X6034Y31482
X6487Y27535
X6487Y26535
X6487Y25535
X6487Y24535
X6487Y23535
X6487Y22535
X6487Y21535
X6487Y20535
X6487Y19535
X6487Y18535
X1487Y18535
X1487Y19535
X1487Y20535
X1487Y21535
X1487Y22535
X1487Y23535
X1487Y24535
X1487Y25535
X1487Y26535
X1487Y27535
X15814Y26061
X17814Y26061
X22365Y27248
X23365Y27248
X24365Y27248
X25365Y27248
X26365Y27248
X27365Y27248
X28365Y27248
X29365Y27248
X31365Y27248
X32365Y27248
X33365Y27248
X34365Y27248
X35365Y27248
X36365Y27248
X37365Y27248
X38365Y27248
X40365Y27248
X41365Y27248
X42365Y27248
X43365Y27248
X44365Y27248
X45365Y27248
X46365Y27248
X47365Y27248
X49365Y27248
X50365Y27248
X51365Y27248
X52365Y27248
X53365Y27248
X54365Y27248
X55365Y27248
X56365Y27248
X56365Y22248
X55365Y22248
X54365Y22248
X53365Y22248
X52365Y22248
X51365Y22248
X50365Y22248
X49365Y22248
X47365Y22248
X46365Y22248
X45365Y22248
X44365Y22248
X43365Y22248
X42365Y22248
X41365Y22248
X40365Y22248
X38365Y22248
X37365Y22248
X36365Y22248
X35365Y22248
X34365Y22248
X33365Y22248
X32365Y22248
X31365Y22248
X29365Y22248
X28365Y22248
X27365Y22248
X26365Y22248
X25365Y22248
X24365Y22248
X23365Y22248
X22365Y22248
X24365Y20748
X25365Y20748
X25365Y19748
X24365Y19748
X17788Y22406
X15788Y22406
X2052Y15962
X2152Y14962
X2052Y13962
X13116Y8290
X14116Y8290
X15116Y8290
X18037Y4566
X18037Y2566
X31615Y6259
X31615Y7259
X31615Y8259
X33487Y8259
X35401Y8259
X35401Y7259
X33487Y7259
X33487Y6259
X35401Y6259
X31175Y11457
X30175Y11457
X29175Y11457
X29175Y12457
X30175Y12457
X31175Y12457
X22748Y15079
X21748Y15079
X20748Y15079
X33365Y19748
X34365Y19748
X34365Y20748
X33365Y20748
X42365Y20748
X43365Y20748
X43365Y19748
X42365Y19748
X51365Y19748
X52365Y19748
X52365Y20748
X51365Y20748
X61705Y15736
X63705Y15736
X56081Y6260
X55081Y6260
X54081Y6260
X53081Y6260
X52081Y6260
X51081Y6260
X21188Y30928
X20188Y30928
X18542Y30891
X17542Y30891
T07
X3791Y12441
X2737Y12441
X2737Y9441
X3791Y9441
T08
X13250Y5161
X15218Y5161
X20749Y5161
X22717Y5161
X22897Y30211
X24865Y30211
X26903Y30211
X28871Y30211
X31901Y30211
X33870Y30211
X35907Y30211
X37876Y30211
X40906Y30248
X42874Y30248
X44912Y30248
X46880Y30248
X49837Y30248
X51805Y30248
X53806Y30248
X55774Y30248
X15250Y30167
X13282Y30167
T09
X30366Y21256
X39376Y21180
X48360Y21205
X57370Y21231
T10
X59490Y24748
X62740Y24748
X62740Y26748
X59490Y26748
X59490Y28748
X62740Y28748
X62740Y30748
X59490Y30748
X17929Y12731
X17929Y10731
X17929Y8731
X17929Y6731
T11
X65507Y10568
X67672Y10568
X67672Y12222
X65507Y12222
X65507Y13875
X67672Y13875
X67672Y15529
X65507Y15529
X65507Y17182
X67672Y17182
X67672Y18836
X65507Y18836
X65507Y20489
X67672Y20489
X67672Y22143
X65507Y22143
X65507Y23796
X67672Y23796
X67672Y25450
X65507Y25450
X65507Y27103
X67672Y27103
X67672Y28757
X65507Y28757
T12
X7070Y6147
X2330Y6147
T13
X70546Y10568
X70546Y28757
T14
X69580Y31554
X61245Y20205
X69713Y3911
X10393Y3955
X10437Y31510
T15
X14116Y14190
X21748Y9179
M30
